<svg width="60" height="60" viewBox="0 0 60 60" fill="none" xmlns="http://www.w3.org/2000/svg">
<g id="Analytics" clip-path="url(#clip0_665_220)">
<path id="Vector" d="M33.9258 22.8113H39.668C40.2117 22.8107 40.7329 22.5944 41.1174 22.2099C41.5019 21.8255 41.7181 21.3042 41.7188 20.7605V17.8308C41.7181 17.2871 41.5019 16.7658 41.1174 16.3814C40.7329 15.9969 40.2117 15.7806 39.668 15.78H33.9258C33.3821 15.7806 32.8608 15.9969 32.4763 16.3814C32.0919 16.7658 31.8756 17.2871 31.875 17.8308V20.7605C31.8756 21.3042 32.0919 21.8255 32.4763 22.2099C32.8608 22.5944 33.3821 22.8107 33.9258 22.8113ZM33.6328 17.8308C33.6329 17.7531 33.6638 17.6787 33.7187 17.6238C33.7736 17.5688 33.8481 17.5379 33.9258 17.5378H39.668C39.7456 17.5379 39.8201 17.5688 39.875 17.6238C39.9299 17.6787 39.9608 17.7531 39.9609 17.8308V20.7605C39.9608 20.8382 39.9299 20.9126 39.875 20.9676C39.8201 21.0225 39.7456 21.0534 39.668 21.0535H33.9258C33.8481 21.0534 33.7736 21.0225 33.7187 20.9676C33.6638 20.9126 33.6329 20.8382 33.6328 20.7605V17.8308ZM8.78906 54.6863C9.45446 54.6867 10.1063 54.4981 10.6687 54.1425C11.2311 53.787 11.681 53.279 11.966 52.6777C12.2511 52.0765 12.3595 51.4066 12.2787 50.7462C12.1979 50.0857 11.9312 49.4617 11.5097 48.9469L21.6633 35.1021C22.1433 35.2947 22.6601 35.3786 23.1764 35.348C23.6927 35.3173 24.1959 35.1728 24.6498 34.9248L36.804 47.9486C36.447 48.5089 36.256 49.1589 36.2532 49.8233C36.2504 50.4877 36.436 51.1392 36.7884 51.7025C37.1407 52.2657 37.6455 52.7176 38.2442 53.0057C38.8429 53.2938 39.511 53.4064 40.171 53.3304C40.831 53.2543 41.456 52.9928 41.9735 52.5761C42.491 52.1594 42.8798 51.6046 43.0949 50.976C43.31 50.3474 43.3425 49.6707 43.1887 49.0243C43.035 48.378 42.7012 47.7884 42.2261 47.324L50.2843 33.2333C51.1115 33.461 51.9933 33.3791 52.7644 33.003C53.5355 32.6269 54.1429 31.9824 54.4727 31.1905C54.8025 30.3985 54.8321 29.5134 54.5559 28.7011C54.2798 27.8889 53.7167 27.2053 52.9725 26.7785C52.2283 26.3518 51.3539 26.2111 50.5134 26.383C49.6729 26.5549 48.9239 27.0275 48.407 27.7122C47.89 28.3969 47.6406 29.2467 47.7055 30.1021C47.7704 30.9576 48.1451 31.76 48.7594 32.3589L40.703 46.4461C39.8252 46.2032 38.8873 46.3114 38.0878 46.7478L25.9331 33.7235C26.2809 33.1772 26.4711 32.5453 26.4825 31.8977C26.4939 31.2501 26.3262 30.6119 25.9978 30.0536C25.6695 29.4953 25.1933 29.0386 24.6217 28.7338C24.0502 28.4291 23.4056 28.2881 22.7591 28.3266C22.1125 28.365 21.4891 28.5813 20.9577 28.9516C20.4263 29.3219 20.0076 29.8318 19.7477 30.4251C19.4878 31.0184 19.3968 31.6719 19.4849 32.3136C19.5729 32.9553 19.8365 33.5602 20.2466 34.0615L10.0927 47.9066C9.61168 47.7145 9.09419 47.631 8.57718 47.6621C8.06018 47.6932 7.55644 47.8382 7.10199 48.0867C6.64755 48.3352 6.25363 48.681 5.9484 49.0994C5.64318 49.5179 5.43419 49.9986 5.33639 50.5072C5.23859 51.0159 5.2544 51.5398 5.38268 52.0416C5.51095 52.5434 5.74853 53.0107 6.07843 53.41C6.40832 53.8093 6.82237 54.1307 7.29096 54.3514C7.75956 54.572 8.27112 54.6864 8.78906 54.6863ZM51.2109 28.0847C51.5586 28.0847 51.8985 28.1878 52.1875 28.381C52.4766 28.5741 52.7019 28.8486 52.8349 29.1698C52.968 29.491 53.0028 29.8445 52.935 30.1855C52.8671 30.5264 52.6997 30.8397 52.4539 31.0855C52.2081 31.3313 51.8949 31.4987 51.5539 31.5666C51.2129 31.6344 50.8594 31.5996 50.5382 31.4665C50.2171 31.3335 49.9425 31.1082 49.7494 30.8191C49.5562 30.53 49.4531 30.1902 49.4531 29.8425C49.4537 29.3765 49.639 28.9297 49.9686 28.6002C50.2981 28.2706 50.7449 28.0852 51.2109 28.0847ZM39.7685 48.0769C40.1162 48.0769 40.456 48.18 40.7451 48.3731C41.0342 48.5663 41.2595 48.8408 41.3925 49.162C41.5256 49.4832 41.5604 49.8367 41.4926 50.1776C41.4247 50.5186 41.2573 50.8318 41.0115 51.0777C40.7656 51.3235 40.4524 51.4909 40.1115 51.5588C39.7705 51.6266 39.417 51.5918 39.0958 51.4587C38.7746 51.3257 38.5001 51.1004 38.3069 50.8113C38.1138 50.5222 38.0107 50.1824 38.0107 49.8347C38.0112 49.3687 38.1966 48.9219 38.5261 48.5923C38.8557 48.2628 39.3025 48.0774 39.7685 48.0769ZM22.9679 30.0807C23.3156 30.0807 23.6554 30.1837 23.9445 30.3769C24.2336 30.57 24.4589 30.8446 24.5919 31.1658C24.725 31.487 24.7598 31.8404 24.692 32.1814C24.6241 32.5224 24.4567 32.8356 24.2109 33.0814C23.9651 33.3273 23.6518 33.4947 23.3109 33.5625C22.9699 33.6303 22.6164 33.5955 22.2952 33.4625C21.974 33.3294 21.6995 33.1041 21.5064 32.8151C21.3132 32.526 21.2101 32.1861 21.2101 31.8385C21.2106 31.3724 21.396 30.9256 21.7256 30.5961C22.0551 30.2665 22.5019 30.0812 22.9679 30.0807ZM8.78906 49.4128C9.13673 49.4128 9.47658 49.5159 9.76565 49.7091C10.0547 49.9022 10.28 50.1768 10.4131 50.498C10.5461 50.8192 10.5809 51.1726 10.5131 51.5136C10.4453 51.8546 10.2779 52.1678 10.032 52.4136C9.78619 52.6595 9.47298 52.8269 9.13199 52.8947C8.79101 52.9625 8.43758 52.9277 8.11638 52.7947C7.79518 52.6616 7.52065 52.4363 7.32749 52.1472C7.13434 51.8582 7.03125 51.5183 7.03125 51.1707C7.03178 50.7046 7.21714 50.2578 7.54668 49.9283C7.87622 49.5987 8.32302 49.4134 8.78906 49.4128ZM19.5117 21.9324H27.2461C27.4792 21.9324 27.7027 21.8398 27.8676 21.6749C28.0324 21.5101 28.125 21.2866 28.125 21.0535C28.125 20.8204 28.0324 20.5968 27.8676 20.432C27.7027 20.2672 27.4792 20.1746 27.2461 20.1746H19.5117C19.2786 20.1746 19.0551 20.2672 18.8902 20.432C18.7254 20.5968 18.6328 20.8204 18.6328 21.0535C18.6328 21.2866 18.7254 21.5101 18.8902 21.6749C19.0551 21.8398 19.2786 21.9324 19.5117 21.9324ZM46.1133 21.9324H53.8477C54.0808 21.9324 54.3043 21.8398 54.4691 21.6749C54.634 21.5101 54.7266 21.2866 54.7266 21.0535C54.7266 20.8204 54.634 20.5968 54.4691 20.432C54.3043 20.2672 54.0808 20.1746 53.8477 20.1746H46.1133C45.8802 20.1746 45.6566 20.2672 45.4918 20.432C45.327 20.5968 45.2344 20.8204 45.2344 21.0535C45.2344 21.2866 45.327 21.5101 45.4918 21.6749C45.6566 21.8398 45.8802 21.9324 46.1133 21.9324ZM46.1133 18.4167H53.8477C54.0808 18.4167 54.3043 18.3241 54.4691 18.1593C54.634 17.9945 54.7266 17.7709 54.7266 17.5378C54.7266 17.3047 54.634 17.0812 54.4691 16.9164C54.3043 16.7515 54.0808 16.6589 53.8477 16.6589H46.1133C45.8802 16.6589 45.6566 16.7515 45.4918 16.9164C45.327 17.0812 45.2344 17.3047 45.2344 17.5378C45.2344 17.7709 45.327 17.9945 45.4918 18.1593C45.6566 18.3241 45.8802 18.4167 46.1133 18.4167ZM19.5117 18.4167H27.2461C27.4792 18.4167 27.7027 18.3241 27.8676 18.1593C28.0324 17.9945 28.125 17.7709 28.125 17.5378C28.125 17.3047 28.0324 17.0812 27.8676 16.9164C27.7027 16.7515 27.4792 16.6589 27.2461 16.6589H19.5117C19.2786 16.6589 19.0551 16.7515 18.8902 16.9164C18.7254 17.0812 18.6328 17.3047 18.6328 17.5378C18.6328 17.7709 18.7254 17.9945 18.8902 18.1593C19.0551 18.3241 19.2786 18.4167 19.5117 18.4167ZM9.91723 5.45897C9.74339 5.45897 9.57347 5.51052 9.42893 5.6071C9.2844 5.70367 9.17175 5.84094 9.10522 6.00154C9.0387 6.16214 9.0213 6.33886 9.05521 6.50935C9.08912 6.67984 9.17283 6.83644 9.29575 6.95936C9.41866 7.08228 9.57527 7.16599 9.74576 7.1999C9.91625 7.23381 10.093 7.21641 10.2536 7.14988C10.4142 7.08336 10.5514 6.97071 10.648 6.82618C10.7446 6.68164 10.7961 6.51171 10.7961 6.33788C10.7961 6.10478 10.7035 5.88123 10.5387 5.7164C10.3739 5.55157 10.1503 5.45897 9.91723 5.45897ZM6.4016 5.45897C6.22777 5.45897 6.05784 5.51052 5.91331 5.6071C5.76877 5.70367 5.65612 5.84094 5.5896 6.00154C5.52308 6.16214 5.50567 6.33886 5.53958 6.50935C5.5735 6.67984 5.6572 6.83644 5.78012 6.95936C5.90304 7.08228 6.05964 7.16599 6.23014 7.1999C6.40063 7.23381 6.57735 7.21641 6.73794 7.14988C6.89854 7.08336 7.03581 6.97071 7.13239 6.82618C7.22896 6.68164 7.28051 6.51171 7.28051 6.33788C7.28051 6.22246 7.25777 6.10817 7.2136 6.00154C7.16944 5.8949 7.1047 5.79801 7.02308 5.7164C6.94147 5.63479 6.84458 5.57005 6.73794 5.52588C6.63131 5.48171 6.51702 5.45897 6.4016 5.45897ZM7.32422 22.8113H13.0664C13.6101 22.8107 14.1314 22.5944 14.5158 22.2099C14.9003 21.8255 15.1166 21.3042 15.1172 20.7605V17.8308C15.1166 17.2871 14.9003 16.7658 14.5158 16.3814C14.1314 15.9969 13.6101 15.7806 13.0664 15.78H7.32422C6.78051 15.7806 6.25924 15.9969 5.87478 16.3814C5.49032 16.7658 5.27406 17.2871 5.27344 17.8308V20.7605C5.27406 21.3042 5.49032 21.8255 5.87478 22.2099C6.25924 22.5944 6.78051 22.8107 7.32422 22.8113ZM7.03125 17.8308C7.03134 17.7531 7.06224 17.6787 7.11716 17.6238C7.17208 17.5688 7.24655 17.5379 7.32422 17.5378H13.0664C13.1441 17.5379 13.2185 17.5688 13.2735 17.6238C13.3284 17.6787 13.3593 17.7531 13.3594 17.8308V20.7605C13.3593 20.8382 13.3284 20.9126 13.2735 20.9676C13.2185 21.0225 13.1441 21.0534 13.0664 21.0535H7.32422C7.24655 21.0534 7.17208 21.0225 7.11716 20.9676C7.06224 20.9126 7.03134 20.8382 7.03125 20.7605V17.8308ZM13.4329 5.45897C13.259 5.45897 13.0891 5.51052 12.9446 5.6071C12.8 5.70367 12.6874 5.84094 12.6208 6.00154C12.5543 6.16214 12.5369 6.33886 12.5708 6.50935C12.6047 6.67984 12.6885 6.83644 12.8114 6.95936C12.9343 7.08228 13.0909 7.16599 13.2614 7.1999C13.4319 7.23381 13.6086 7.21641 13.7692 7.14988C13.9298 7.08336 14.0671 6.97071 14.1636 6.82618C14.2602 6.68164 14.3118 6.51171 14.3118 6.33788C14.3118 6.10478 14.2192 5.88123 14.0543 5.7164C13.8895 5.55157 13.666 5.45897 13.4329 5.45897ZM55.6055 -0.0402832H4.39453C3.22943 -0.0389805 2.11242 0.424432 1.28857 1.24828C0.464715 2.07214 0.00130273 3.18915 0 4.35425L0 55.5652C0.00130273 56.7303 0.464715 57.8473 1.28857 58.6711C2.11242 59.495 3.22943 59.9584 4.39453 59.9597H55.6055C56.7706 59.9584 57.8876 59.495 58.7114 58.6711C59.5353 57.8473 59.9987 56.7303 60 55.5652V4.35425C59.9987 3.18915 59.5353 2.07214 58.7114 1.24828C57.8876 0.424432 56.7706 -0.0389805 55.6055 -0.0402832ZM58.2422 55.5652C58.2414 56.2642 57.9633 56.9344 57.469 57.4287C56.9747 57.923 56.3045 58.2011 55.6055 58.2019H4.39453C3.69548 58.2011 3.02529 57.923 2.53098 57.4287C2.03667 56.9344 1.75862 56.2642 1.75781 55.5652V12.2644H58.2422V55.5652ZM58.2422 10.5066H1.75781V4.35425C1.75862 3.65519 2.03667 2.985 2.53098 2.4907C3.02529 1.99639 3.69548 1.71834 4.39453 1.71753H55.6055C56.3045 1.71834 56.9747 1.99639 57.469 2.4907C57.9633 2.985 58.2414 3.65519 58.2422 4.35425V10.5066Z" fill="white"/>
</g>
<defs>
<clipPath id="clip0_665_220">
<rect width="60" height="60" fill="white"/>
</clipPath>
</defs>
</svg>
