<svg width="40" height="40" viewBox="0 0 40 40" fill="none" xmlns="http://www.w3.org/2000/svg">
<g id="calendar with star" clip-path="url(#clip0_688_2)">
<g id="calendar with star_2">
<path id="Vector" d="M38.75 3.1252H36.1875C36.0441 2.41877 35.6608 1.78366 35.1027 1.32747C34.5445 0.871278 33.8458 0.62207 33.125 0.62207C32.4042 0.62207 31.7055 0.871278 31.1473 1.32747C30.5892 1.78366 30.2059 2.41877 30.0625 3.1252H27.4375C27.2941 2.41877 26.9108 1.78366 26.3527 1.32747C25.7945 0.871278 25.0958 0.62207 24.375 0.62207C23.6542 0.62207 22.9555 0.871278 22.3973 1.32747C21.8392 1.78366 21.4559 2.41877 21.3125 3.1252H18.6875C18.5441 2.41877 18.1608 1.78366 17.6027 1.32747C17.0445 0.871278 16.3458 0.62207 15.625 0.62207C14.9042 0.62207 14.2055 0.871278 13.6473 1.32747C13.0892 1.78366 12.7059 2.41877 12.5625 3.1252H9.9375C9.79405 2.41877 9.41079 1.78366 8.85266 1.32747C8.29453 0.871278 7.59585 0.62207 6.875 0.62207C6.15415 0.62207 5.45547 0.871278 4.89734 1.32747C4.33921 1.78366 3.95595 2.41877 3.8125 3.1252H1.25C1.08424 3.1252 0.925268 3.19105 0.808058 3.30826C0.690848 3.42547 0.625 3.58444 0.625 3.7502V8.7502C0.625 8.91596 0.690848 9.07493 0.808058 9.19214C0.925268 9.30935 1.08424 9.3752 1.25 9.3752H1.875V38.7502C1.875 38.916 1.94085 39.0749 2.05806 39.1921C2.17527 39.3094 2.33424 39.3752 2.5 39.3752H12.5C12.6658 39.3752 12.8247 39.3094 12.9419 39.1921C13.0592 39.0749 13.125 38.916 13.125 38.7502C13.125 38.5844 13.0592 38.4255 12.9419 38.3083C12.8247 38.1911 12.6658 38.1252 12.5 38.1252H3.125V32.7565L7.05625 36.694C7.117 36.7492 7.18676 36.7936 7.2625 36.8252C7.33764 36.8572 7.41833 36.8742 7.5 36.8752H36.875V38.1252H14.375C14.2092 38.1252 14.0503 38.1911 13.9331 38.3083C13.8158 38.4255 13.75 38.5844 13.75 38.7502C13.75 38.916 13.8158 39.0749 13.9331 39.1921C14.0503 39.3094 14.2092 39.3752 14.375 39.3752H37.5C37.6658 39.3752 37.8247 39.3094 37.9419 39.1921C38.0592 39.0749 38.125 38.916 38.125 38.7502V30.6252C38.125 30.4594 38.0592 30.3005 37.9419 30.1833C37.8247 30.0661 37.6658 30.0002 37.5 30.0002C37.3342 30.0002 37.1753 30.0661 37.0581 30.1833C36.9408 30.3005 36.875 30.4594 36.875 30.6252V35.6252H8.125V31.2502C8.125 31.0844 8.05915 30.9255 7.94194 30.8083C7.82473 30.6911 7.66576 30.6252 7.5 30.6252H3.125V11.8752H25C25.1658 11.8752 25.3247 11.8094 25.4419 11.6921C25.5592 11.5749 25.625 11.416 25.625 11.2502C25.625 11.0844 25.5592 10.9255 25.4419 10.8083C25.3247 10.6911 25.1658 10.6252 25 10.6252H3.125V9.3752H36.875V10.6252H26.875C26.7092 10.6252 26.5503 10.6911 26.4331 10.8083C26.3158 10.9255 26.25 11.0844 26.25 11.2502C26.25 11.416 26.3158 11.5749 26.4331 11.6921C26.5503 11.8094 26.7092 11.8752 26.875 11.8752H36.875V16.8752C36.875 17.041 36.9408 17.1999 37.0581 17.3171C37.1753 17.4344 37.3342 17.5002 37.5 17.5002C37.6658 17.5002 37.8247 17.4344 37.9419 17.3171C38.0592 17.1999 38.125 17.041 38.125 16.8752V9.3752H38.75C38.9158 9.3752 39.0747 9.30935 39.1919 9.19214C39.3092 9.07493 39.375 8.91596 39.375 8.7502V3.7502C39.375 3.58444 39.3092 3.42547 39.1919 3.30826C39.0747 3.19105 38.9158 3.1252 38.75 3.1252ZM6.875 31.8752V34.744L4.00625 31.8752H6.875ZM33.125 1.8752C33.5118 1.87629 33.8889 1.997 34.2044 2.22079C34.52 2.44458 34.7586 2.76048 34.8875 3.1252H31.3625C31.4914 2.76048 31.73 2.44458 32.0456 2.22079C32.3611 1.997 32.7382 1.87629 33.125 1.8752ZM24.375 1.8752C24.7618 1.87629 25.1389 1.997 25.4544 2.22079C25.77 2.44458 26.0086 2.76048 26.1375 3.1252H22.6125C22.7414 2.76048 22.98 2.44458 23.2956 2.22079C23.6111 1.997 23.9882 1.87629 24.375 1.8752ZM15.625 1.8752C16.0118 1.87629 16.3889 1.997 16.7044 2.22079C17.02 2.44458 17.2586 2.76048 17.3875 3.1252H13.8625C13.9914 2.76048 14.23 2.44458 14.5456 2.22079C14.8611 1.997 15.2382 1.87629 15.625 1.8752ZM38.125 8.1252H1.875V4.3752H6.25C6.41576 4.3752 6.57473 4.30936 6.69194 4.19214C6.80915 4.07493 6.875 3.91596 6.875 3.7502C6.875 3.58444 6.80915 3.42547 6.69194 3.30826C6.57473 3.19105 6.41576 3.1252 6.25 3.1252H5.1125C5.24388 2.76323 5.48352 2.45049 5.79885 2.22948C6.11419 2.00847 6.48993 1.88991 6.875 1.88991C7.26007 1.88991 7.63581 2.00847 7.95115 2.22948C8.26648 2.45049 8.50612 2.76323 8.6375 3.1252H8.125C7.95924 3.1252 7.80027 3.19105 7.68306 3.30826C7.56585 3.42547 7.5 3.58444 7.5 3.7502C7.5 3.91596 7.56585 4.07493 7.68306 4.19214C7.80027 4.30936 7.95924 4.3752 8.125 4.3752H8.6375C8.50855 4.73992 8.26996 5.05583 7.95442 5.27962C7.63888 5.5034 7.26184 5.62412 6.875 5.6252C6.70924 5.6252 6.55027 5.69105 6.43306 5.80826C6.31585 5.92547 6.25 6.08444 6.25 6.2502C6.25 6.41596 6.31585 6.57493 6.43306 6.69214C6.55027 6.80935 6.70924 6.8752 6.875 6.8752C7.59541 6.87535 8.29374 6.62659 8.85181 6.17102C9.40989 5.71545 9.79342 5.08106 9.9375 4.3752H17.3875C17.2586 4.73992 17.02 5.05583 16.7044 5.27962C16.3889 5.5034 16.0118 5.62412 15.625 5.6252C15.4592 5.6252 15.3003 5.69105 15.1831 5.80826C15.0658 5.92547 15 6.08444 15 6.2502C15 6.41596 15.0658 6.57493 15.1831 6.69214C15.3003 6.80935 15.4592 6.8752 15.625 6.8752C16.3454 6.87535 17.0437 6.62659 17.6018 6.17102C18.1599 5.71545 18.5434 5.08106 18.6875 4.3752H26.1375C26.0086 4.73992 25.77 5.05583 25.4544 5.27962C25.1389 5.5034 24.7618 5.62412 24.375 5.6252C24.2092 5.6252 24.0503 5.69105 23.9331 5.80826C23.8158 5.92547 23.75 6.08444 23.75 6.2502C23.75 6.41596 23.8158 6.57493 23.9331 6.69214C24.0503 6.80935 24.2092 6.8752 24.375 6.8752C25.0954 6.87535 25.7937 6.62659 26.3518 6.17102C26.9099 5.71545 27.2934 5.08106 27.4375 4.3752H34.8875C34.7586 4.73992 34.52 5.05583 34.2044 5.27962C33.8889 5.5034 33.5118 5.62412 33.125 5.6252C32.9592 5.6252 32.8003 5.69105 32.6831 5.80826C32.5658 5.92547 32.5 6.08444 32.5 6.2502C32.5 6.41596 32.5658 6.57493 32.6831 6.69214C32.8003 6.80935 32.9592 6.8752 33.125 6.8752C33.8454 6.87535 34.5437 6.62659 35.1018 6.17102C35.6599 5.71545 36.0434 5.08106 36.1875 4.3752H38.125V8.1252Z" fill="white"/>
<path id="Vector_2" d="M36.45 21.6504C36.4095 21.5431 36.3402 21.4491 36.2498 21.3785C36.1595 21.308 36.0514 21.2637 35.9375 21.2504L32.6437 20.8192L31.125 17.8379C31.0732 17.7339 30.9934 17.6464 30.8945 17.5853C30.7957 17.5241 30.6818 17.4917 30.5656 17.4917C30.4494 17.4917 30.3355 17.5241 30.2367 17.5853C30.1379 17.6464 30.0581 17.7339 30.0062 17.8379L28.575 20.8442L25.2937 21.3692C25.1785 21.3872 25.0705 21.4372 24.9821 21.5134C24.8938 21.5896 24.8285 21.689 24.7937 21.8004C24.7621 21.9101 24.7611 22.0263 24.7909 22.1365C24.8206 22.2466 24.88 22.3466 24.9625 22.4254L27.375 24.7129L26.875 28.0317C26.8618 28.1447 26.8798 28.2592 26.927 28.3629C26.9741 28.4665 27.0487 28.5552 27.1426 28.6195C27.2365 28.6839 27.3462 28.7213 27.4599 28.7279C27.5735 28.7344 27.6868 28.7098 27.7875 28.6567L30.7125 27.0692L33.675 28.5692C33.7795 28.6231 33.8972 28.6464 34.0143 28.6364C34.1315 28.6265 34.2435 28.5837 34.3375 28.5129C34.4322 28.4419 34.5048 28.3455 34.5468 28.2348C34.5889 28.1242 34.5987 28.0039 34.575 27.8879L33.95 24.6192L36.3 22.2629C36.3771 22.1833 36.4315 22.0846 36.4579 21.977C36.4843 21.8693 36.4815 21.7566 36.45 21.6504ZM32.8375 24.0004C32.7653 24.0719 32.7116 24.1599 32.6811 24.2569C32.6507 24.3538 32.6443 24.4567 32.6625 24.5567L33.125 26.8754L30.9937 25.7942C30.9041 25.7471 30.8044 25.7225 30.7031 25.7225C30.6019 25.7225 30.5021 25.7471 30.4125 25.7942L28.3187 26.9317L28.6875 24.5754C28.7031 24.4754 28.6942 24.3731 28.6616 24.2773C28.6289 24.1815 28.5734 24.095 28.5 24.0254L26.7687 22.3817L29.125 22.0067C29.2246 21.99 29.3188 21.9495 29.3993 21.8886C29.4799 21.8276 29.5444 21.748 29.5875 21.6567L30.625 19.5379L31.7062 21.6629C31.7526 21.7543 31.8208 21.8329 31.9047 21.8918C31.9886 21.9506 32.0858 21.9879 32.1875 22.0004L34.55 22.3067L32.8375 24.0004Z" fill="white"/>
<path id="Vector_3" d="M39.375 23.5812C39.375 21.2606 38.4531 19.035 36.8122 17.3941C35.1712 15.7531 32.9456 14.8312 30.625 14.8312C28.3044 14.8312 26.0788 15.7531 24.4378 17.3941C22.7969 19.035 21.875 21.2606 21.875 23.5812C21.8717 25.6692 22.6421 27.6843 24.0375 29.2375L23.2562 31.6875C23.2254 31.7977 23.2254 31.9143 23.2563 32.0245C23.2871 32.1347 23.3477 32.2343 23.4313 32.3125C23.5465 32.4204 23.6984 32.4807 23.8562 32.4813C23.9354 32.4814 24.0139 32.4666 24.0875 32.4375L26.875 31.3375C28.048 31.8889 29.3289 32.1728 30.625 32.1688C32.9236 32.1887 35.1362 31.2956 36.7768 29.6855C38.4174 28.0753 39.3519 25.8799 39.375 23.5812ZM30.625 30.9188C29.4282 30.9245 28.2474 30.6438 27.1813 30.1C27.0923 30.0544 26.9937 30.0308 26.8937 30.0312C26.8146 30.0311 26.7361 30.0459 26.6625 30.075L24.85 30.8L25.3375 29.2625C25.3714 29.1545 25.3754 29.0393 25.349 28.9292C25.3226 28.8192 25.2668 28.7183 25.1875 28.6375C23.8633 27.2879 23.1226 25.472 23.125 23.5812C23.0927 22.0914 23.505 20.6257 24.3092 19.3711C25.1135 18.1166 26.2732 17.13 27.6405 16.5374C29.0078 15.9447 30.5206 15.7728 31.986 16.0436C33.4514 16.3144 34.8029 17.0156 35.8681 18.0577C36.9334 19.0998 37.664 20.4357 37.9668 21.8948C38.2696 23.3539 38.1308 24.8701 37.5683 26.2501C37.0057 27.63 36.0448 28.8111 34.8082 29.6426C33.5715 30.4741 32.1152 30.9184 30.625 30.9188ZM9.375 13.75C9.375 13.5842 9.30915 13.4253 9.19194 13.3081C9.07473 13.1908 8.91576 13.125 8.75 13.125H5C4.83424 13.125 4.67527 13.1908 4.55806 13.3081C4.44085 13.4253 4.375 13.5842 4.375 13.75V17.5C4.375 17.6658 4.44085 17.8247 4.55806 17.9419C4.67527 18.0592 4.83424 18.125 5 18.125H8.75C8.91576 18.125 9.07473 18.0592 9.19194 17.9419C9.30915 17.8247 9.375 17.6658 9.375 17.5V13.75ZM8.125 16.875H5.625V14.375H8.125V16.875ZM8.75 21.25H5C4.83424 21.25 4.67527 21.3158 4.55806 21.4331C4.44085 21.5503 4.375 21.7092 4.375 21.875V25.625C4.375 25.7908 4.44085 25.9497 4.55806 26.0669C4.67527 26.1842 4.83424 26.25 5 26.25H8.75C8.91576 26.25 9.07473 26.1842 9.19194 26.0669C9.30915 25.9497 9.375 25.7908 9.375 25.625V21.875C9.375 21.7092 9.30915 21.5503 9.19194 21.4331C9.07473 21.3158 8.91576 21.25 8.75 21.25ZM8.125 25H5.625V22.5H8.125V25ZM17.5 13.75C17.5 13.5842 17.4342 13.4253 17.3169 13.3081C17.1997 13.1908 17.0408 13.125 16.875 13.125H13.125C12.9592 13.125 12.8003 13.1908 12.6831 13.3081C12.5658 13.4253 12.5 13.5842 12.5 13.75V17.5C12.5 17.6658 12.5658 17.8247 12.6831 17.9419C12.8003 18.0592 12.9592 18.125 13.125 18.125H16.875C17.0408 18.125 17.1997 18.0592 17.3169 17.9419C17.4342 17.8247 17.5 17.6658 17.5 17.5V13.75ZM16.25 16.875H13.75V14.375H16.25V16.875ZM17.5 21.875C17.5 21.7092 17.4342 21.5503 17.3169 21.4331C17.1997 21.3158 17.0408 21.25 16.875 21.25H13.125C12.9592 21.25 12.8003 21.3158 12.6831 21.4331C12.5658 21.5503 12.5 21.7092 12.5 21.875V25.625C12.5 25.7908 12.5658 25.9497 12.6831 26.0669C12.8003 26.1842 12.9592 26.25 13.125 26.25H16.875C17.0408 26.25 17.1997 26.1842 17.3169 26.0669C17.4342 25.9497 17.5 25.7908 17.5 25.625V21.875ZM16.25 25H13.75V22.5H16.25V25ZM16.875 29.375H13.125C12.9592 29.375 12.8003 29.4408 12.6831 29.5581C12.5658 29.6753 12.5 29.8342 12.5 30V33.75C12.5 33.9158 12.5658 34.0747 12.6831 34.1919C12.8003 34.3092 12.9592 34.375 13.125 34.375H16.875C17.0408 34.375 17.1997 34.3092 17.3169 34.1919C17.4342 34.0747 17.5 33.9158 17.5 33.75V30C17.5 29.8342 17.4342 29.6753 17.3169 29.5581C17.1997 29.4408 17.0408 29.375 16.875 29.375ZM16.25 33.125H13.75V30.625H16.25V33.125ZM25 16.25C25.1658 16.25 25.3247 16.1842 25.4419 16.0669C25.5592 15.9497 25.625 15.7908 25.625 15.625V13.75C25.625 13.5842 25.5592 13.4253 25.4419 13.3081C25.3247 13.1908 25.1658 13.125 25 13.125H21.25C21.0842 13.125 20.9253 13.1908 20.8081 13.3081C20.6908 13.4253 20.625 13.5842 20.625 13.75V17.5C20.625 17.6658 20.6908 17.8247 20.8081 17.9419C20.9253 18.0592 21.0842 18.125 21.25 18.125H23.125C23.2908 18.125 23.4497 18.0592 23.5669 17.9419C23.6842 17.8247 23.75 17.6658 23.75 17.5C23.75 17.3342 23.6842 17.1753 23.5669 17.0581C23.4497 16.9408 23.2908 16.875 23.125 16.875H21.875V14.375H24.375V15.625C24.375 15.7908 24.4408 15.9497 24.5581 16.0669C24.6753 16.1842 24.8342 16.25 25 16.25Z" fill="white"/>
<path id="Vector_4" d="M33.125 14.375C33.2908 14.375 33.4497 14.3092 33.5669 14.1919C33.6842 14.0747 33.75 13.9158 33.75 13.75C33.75 13.5842 33.6842 13.4253 33.5669 13.3081C33.4497 13.1908 33.2908 13.125 33.125 13.125H29.375C29.2092 13.125 29.0503 13.1908 28.9331 13.3081C28.8158 13.4253 28.75 13.5842 28.75 13.75C28.75 13.9158 28.8158 14.0747 28.9331 14.1919C29.0503 14.3092 29.2092 14.375 29.375 14.375H33.125ZM20.625 33.75C20.625 33.9158 20.6908 34.0747 20.8081 34.1919C20.9253 34.3092 21.0842 34.375 21.25 34.375H25C25.1658 34.375 25.3247 34.3092 25.4419 34.1919C25.5592 34.0747 25.625 33.9158 25.625 33.75C25.625 33.5842 25.5592 33.4253 25.4419 33.3081C25.3247 33.1908 25.1658 33.125 25 33.125H21.875V30.625H22.5C22.6658 30.625 22.8247 30.5592 22.9419 30.4419C23.0592 30.3247 23.125 30.1658 23.125 30C23.125 29.8342 23.0592 29.6753 22.9419 29.5581C22.8247 29.4408 22.6658 29.375 22.5 29.375H21.25C21.0842 29.375 20.9253 29.4408 20.8081 29.5581C20.6908 29.6753 20.625 29.8342 20.625 30V33.75ZM29.375 33.125C29.2092 33.125 29.0503 33.1908 28.9331 33.3081C28.8158 33.4253 28.75 33.5842 28.75 33.75C28.75 33.9158 28.8158 34.0747 28.9331 34.1919C29.0503 34.3092 29.2092 34.375 29.375 34.375H33.125C33.2908 34.375 33.4497 34.3092 33.5669 34.1919C33.6842 34.0747 33.75 33.9158 33.75 33.75C33.75 33.5842 33.6842 33.4253 33.5669 33.3081C33.4497 33.1908 33.2908 33.125 33.125 33.125H29.375Z" fill="white"/>
</g>
</g>
<defs>
<clipPath id="clip0_688_2">
<rect width="40" height="40" fill="white"/>
</clipPath>
</defs>
</svg>
