<svg width="44" height="40" viewBox="0 0 44 40" fill="none" xmlns="http://www.w3.org/2000/svg">
<path id="Vector" d="M42.7489 21.6758C42.8049 21.5963 42.855 21.5128 42.8988 21.4259L43.0654 21.0927L43.1653 20.7595C43.203 20.6683 43.2309 20.5734 43.2486 20.4763C43.3339 20.0474 43.3339 19.6058 43.2486 19.1769C43.2309 19.0798 43.203 18.9849 43.1653 18.8936L43.0654 18.5605L42.8988 18.2273C42.855 18.1404 42.8049 18.0569 42.7489 17.9774C42.6297 17.7903 42.49 17.617 42.3324 17.4609L25.6726 0.80119C25.0352 0.255329 24.2153 -0.0299054 23.3767 0.0024849C22.5382 0.0348753 21.7427 0.382505 21.1493 0.975906C20.5559 1.56931 20.2083 2.36477 20.1759 3.20334C20.1435 4.04191 20.4287 4.86183 20.9746 5.49923L31.9367 16.4946H3.33194C2.44826 16.4946 1.60077 16.8457 0.975904 17.4706C0.351043 18.0954 0 18.9429 0 19.8266C0 20.7103 0.351043 21.5578 0.975904 22.1826C1.60077 22.8075 2.44826 23.1585 3.33194 23.1585H31.9367L20.9746 34.1373C20.6258 34.436 20.3425 34.8036 20.1425 35.2169C19.9425 35.6303 19.8301 36.0806 19.8124 36.5395C19.7947 36.9983 19.872 37.4559 20.0395 37.8835C20.207 38.3111 20.4611 38.6994 20.7858 39.0241C21.1105 39.3488 21.4989 39.6029 21.9265 39.7704C22.354 39.9379 22.8116 40.0152 23.2705 39.9975C23.7294 39.9798 24.1796 39.8674 24.593 39.6674C25.0064 39.4674 25.3739 39.1841 25.6726 38.8353L42.3324 22.1756C42.489 22.0247 42.6287 21.8571 42.7489 21.6758Z" fill="white"/>
</svg>
