<svg width="40" height="40" viewBox="0 0 40 40" fill="none" xmlns="http://www.w3.org/2000/svg">
<g id="gmail website" clip-path="url(#clip0_680_2)">
<g id="Gmail website">
<path id="Vector" d="M37.5 0H2.5C1.83696 0 1.20107 0.263392 0.732233 0.732233C0.263392 1.20107 0 1.83696 0 2.5L0 37.5C0 38.163 0.263392 38.7989 0.732233 39.2678C1.20107 39.7366 1.83696 40 2.5 40H37.5C38.163 40 38.7989 39.7366 39.2678 39.2678C39.7366 38.7989 40 38.163 40 37.5V2.5C40 1.83696 39.7366 1.20107 39.2678 0.732233C38.7989 0.263392 38.163 0 37.5 0ZM1.66667 2.5C1.66667 2.27899 1.75446 2.06702 1.91074 1.91074C2.06702 1.75446 2.27899 1.66667 2.5 1.66667H37.5C37.721 1.66667 37.933 1.75446 38.0893 1.91074C38.2455 2.06702 38.3333 2.27899 38.3333 2.5V6.66667H1.66667V2.5ZM38.3333 37.5C38.3333 37.721 38.2455 37.933 38.0893 38.0893C37.933 38.2455 37.721 38.3333 37.5 38.3333H2.5C2.27899 38.3333 2.06702 38.2455 1.91074 38.0893C1.75446 37.933 1.66667 37.721 1.66667 37.5V8.33333H38.3333V37.5Z" fill="white"/>
<path id="Vector_2" d="M4.16671 3.3335C3.94569 3.3335 3.73373 3.42129 3.57745 3.57757C3.42117 3.73385 3.33337 3.94582 3.33337 4.16683C3.33337 4.38784 3.42117 4.5998 3.57745 4.75608C3.73373 4.91237 3.94569 5.00016 4.16671 5.00016C4.38772 5.00016 4.59968 4.91237 4.75596 4.75608C4.91224 4.5998 5.00004 4.38784 5.00004 4.16683C5.00004 3.94582 4.91224 3.73385 4.75596 3.57757C4.59968 3.42129 4.38772 3.3335 4.16671 3.3335ZM7.50004 3.3335C7.27903 3.3335 7.06707 3.42129 6.91079 3.57757C6.7545 3.73385 6.66671 3.94582 6.66671 4.16683C6.66671 4.38784 6.7545 4.5998 6.91079 4.75608C7.06707 4.91237 7.27903 5.00016 7.50004 5.00016C7.72105 5.00016 7.93302 4.91237 8.0893 4.75608C8.24558 4.5998 8.33337 4.38784 8.33337 4.16683C8.33337 3.94582 8.24558 3.73385 8.0893 3.57757C7.93302 3.42129 7.72105 3.3335 7.50004 3.3335ZM10.8334 3.3335C10.6124 3.3335 10.4004 3.42129 10.2441 3.57757C10.0878 3.73385 10 3.94582 10 4.16683C10 4.38784 10.0878 4.5998 10.2441 4.75608C10.4004 4.91237 10.6124 5.00016 10.8334 5.00016C11.0544 5.00016 11.2663 4.91237 11.4226 4.75608C11.5789 4.5998 11.6667 4.38784 11.6667 4.16683C11.6667 3.94582 11.5789 3.73385 11.4226 3.57757C11.2663 3.42129 11.0544 3.3335 10.8334 3.3335ZM35.8334 3.3335H17.5C17.279 3.3335 17.0671 3.42129 16.9108 3.57757C16.7545 3.73385 16.6667 3.94582 16.6667 4.16683C16.6667 4.38784 16.7545 4.5998 16.9108 4.75608C17.0671 4.91237 17.279 5.00016 17.5 5.00016H35.8334C36.0544 5.00016 36.2663 4.91237 36.4226 4.75608C36.5789 4.5998 36.6667 4.38784 36.6667 4.16683C36.6667 3.94582 36.5789 3.73385 36.4226 3.57757C36.2663 3.42129 36.0544 3.3335 35.8334 3.3335ZM9.16671 33.3335H30.8334C31.4964 33.3335 32.1323 33.0701 32.6011 32.6013C33.07 32.1324 33.3334 31.4965 33.3334 30.8335V15.8335C33.3334 15.1705 33.07 14.5346 32.6011 14.0657C32.1323 13.5969 31.4964 13.3335 30.8334 13.3335C7.44171 13.3335 8.64171 13.1168 7.67504 13.8418C7.36414 14.073 7.11121 14.3732 6.93622 14.7189C6.76123 15.0645 6.66897 15.4461 6.66671 15.8335V30.8335C6.66671 31.4965 6.9301 32.1324 7.39894 32.6013C7.86778 33.0701 8.50367 33.3335 9.16671 33.3335ZM28.3334 31.6668H11.6667V21.5168C19.8667 26.7335 19.8084 26.9418 20.45 26.5168L28.3334 21.5168V31.6668ZM31.6667 30.8335C31.6667 31.0545 31.5789 31.2665 31.4226 31.4228C31.2663 31.579 31.0544 31.6668 30.8334 31.6668H30C30 19.1668 30.175 19.6002 29.5667 19.2668C28.9584 18.9335 29.3917 18.8668 20 24.8418C10.7 18.9252 11.0417 18.9335 10.4334 19.2668C9.82504 19.6002 10 19.0752 10 31.6668H9.16671C8.94569 31.6668 8.73373 31.579 8.57745 31.4228C8.42117 31.2665 8.33337 31.0545 8.33337 30.8335C8.33337 14.5168 8.33337 15.8752 8.37504 15.6335C20.5917 23.0002 19.6667 22.5002 20 22.5002C20.3334 22.5002 19.5084 22.9335 31.6667 15.6335V30.8335ZM10.5417 15.0002H29.4584L20 20.6918L10.5417 15.0002Z" fill="white"/>
</g>
</g>
<defs>
<clipPath id="clip0_680_2">
<rect width="40" height="40" fill="white"/>
</clipPath>
</defs>
</svg>
