<svg width="40" height="40" viewBox="0 0 40 40" fill="none" xmlns="http://www.w3.org/2000/svg">
<g id="Custom">
<g id="Group">
<path id="Vector" d="M12.6837 28.5672L7.68375 23.5672C7.6258 23.5092 7.57984 23.4405 7.54848 23.3648C7.51712 23.2891 7.50098 23.208 7.50098 23.126C7.50098 23.0441 7.51712 22.9629 7.54848 22.8872C7.57984 22.8115 7.6258 22.7427 7.68375 22.6848C7.74169 22.6268 7.81049 22.5808 7.8862 22.5494C7.96191 22.518 8.04305 22.502 8.125 22.502C8.20695 22.502 8.28809 22.518 8.3638 22.5494C8.43951 22.5808 8.5083 22.6268 8.56625 22.6848L13.5662 27.6848C13.6242 27.7427 13.6702 27.8115 13.7015 27.8872C13.7329 27.9629 13.749 28.0441 13.749 28.126C13.749 28.208 13.7329 28.2891 13.7015 28.3648C13.6702 28.4405 13.6242 28.5092 13.5662 28.5672C13.5083 28.6251 13.4395 28.6712 13.3638 28.7025C13.2881 28.7339 13.2069 28.75 13.125 28.75C13.0431 28.75 12.9619 28.7339 12.8862 28.7025C12.8105 28.6712 12.7417 28.6251 12.6837 28.5672Z" fill="white"/>
<path id="Vector_2" d="M13.5663 18.5662L8.56629 23.5662C8.50843 23.6241 8.43972 23.6701 8.36409 23.7015C8.28845 23.7329 8.20738 23.7491 8.12549 23.7491C8.0436 23.7492 7.9625 23.7331 7.88682 23.7018C7.81114 23.6706 7.74237 23.6247 7.68442 23.5668C7.62647 23.5089 7.58049 23.4403 7.5491 23.3646C7.51771 23.289 7.50152 23.2079 7.50147 23.126C7.50141 23.0441 7.51748 22.963 7.54876 22.8873C7.58005 22.8117 7.62593 22.7429 7.68379 22.685L12.6838 17.6838C12.7417 17.6258 12.8105 17.5798 12.8862 17.5484C12.962 17.5171 13.0431 17.501 13.125 17.501C13.207 17.501 13.2881 17.5171 13.3638 17.5484C13.4396 17.5798 13.5083 17.6258 13.5663 17.6838C13.6242 17.7417 13.6702 17.8104 13.7016 17.8861C13.7329 17.9618 13.7491 18.0431 13.7491 18.1251C13.7491 18.207 13.7329 18.2882 13.7016 18.3639C13.6702 18.4396 13.6242 18.5082 13.5663 18.5662ZM27.3163 28.5674L32.3163 23.5674C32.3742 23.5095 32.4202 23.4408 32.4516 23.3651C32.4829 23.2894 32.4991 23.2082 32.4991 23.1263C32.4991 23.0443 32.4829 22.9632 32.4516 22.8875C32.4202 22.8118 32.3742 22.7429 32.3163 22.685C32.2583 22.6271 32.1896 22.581 32.1138 22.5497C32.0381 22.5183 31.957 22.5022 31.875 22.5022C31.7931 22.5022 31.712 22.5183 31.6362 22.5497C31.5605 22.581 31.4917 22.6271 31.4338 22.685L26.4338 27.685C26.3758 27.7429 26.3299 27.8118 26.2985 27.8875C26.2672 27.9632 26.251 28.0443 26.251 28.1263C26.251 28.2082 26.2672 28.2894 26.2985 28.3651C26.3299 28.4408 26.3758 28.5095 26.4338 28.5674C26.4917 28.6254 26.5605 28.6714 26.6362 28.7028C26.712 28.7341 26.7931 28.7502 26.875 28.7502C26.957 28.7502 27.0381 28.7341 27.1138 28.7028C27.1896 28.6714 27.2584 28.6254 27.3163 28.5674Z" fill="white"/>
<path id="Vector_3" d="M26.4337 18.5662L31.4337 23.5662C31.4916 23.6241 31.5603 23.6701 31.636 23.7015C31.7116 23.7329 31.7927 23.7491 31.8746 23.7491C31.9564 23.7492 32.0375 23.7331 32.1132 23.7018C32.1889 23.6706 32.2577 23.6247 32.3156 23.5668C32.3736 23.5089 32.4196 23.4403 32.4509 23.3646C32.4823 23.289 32.4985 23.2079 32.4986 23.126C32.4986 23.0441 32.4826 22.963 32.4513 22.8873C32.42 22.8117 32.3741 22.7429 32.3162 22.685L27.3162 17.6838C27.2583 17.6258 27.1895 17.5798 27.1138 17.5484C27.0381 17.5171 26.9569 17.501 26.875 17.501C26.7931 17.501 26.7119 17.5171 26.6362 17.5484C26.5605 17.5798 26.4917 17.6258 26.4337 17.6838C26.3758 17.7417 26.3298 17.8104 26.2985 17.8861C26.2671 17.9618 26.251 18.0431 26.251 18.1251C26.251 18.207 26.2671 18.2882 26.2985 18.3639C26.3298 18.4396 26.3758 18.5082 26.4337 18.5662Z" fill="white"/>
<path id="Vector_4" fill-rule="evenodd" clip-rule="evenodd" d="M24.3825 14.9986C24.2702 14.9969 24.1595 15.0254 24.062 15.0813C23.9646 15.1372 23.884 15.2183 23.8287 15.3161L15.0912 30.3012C15.0464 30.3721 15.0164 30.4514 15.0028 30.5342C14.9893 30.617 14.9926 30.7017 15.0125 30.7832C15.0323 30.8647 15.0685 30.9413 15.1186 31.0086C15.1688 31.0759 15.232 31.1323 15.3044 31.1746C15.3769 31.2169 15.4571 31.2442 15.5404 31.2549C15.6236 31.2655 15.7081 31.2593 15.7889 31.2366C15.8697 31.2138 15.945 31.1752 16.0105 31.1227C16.076 31.0702 16.1302 31.0051 16.17 30.9312L24.91 15.9462C24.9668 15.8519 24.9977 15.7443 24.9996 15.6343C25.0014 15.5243 24.9743 15.4158 24.9207 15.3197C24.8672 15.2235 24.7892 15.1432 24.6947 15.0868C24.6002 15.0305 24.4925 15 24.3825 14.9986Z" fill="white"/>
<path id="Vector_5" d="M3.125 2.49854C2.95924 2.49854 2.80027 2.56435 2.68306 2.68156C2.56585 2.79877 2.5 2.95777 2.5 3.12354V36.8735C2.5 37.0392 2.56585 37.1983 2.68306 37.3155C2.80027 37.4327 2.95924 37.4985 3.125 37.4985H36.875C37.0408 37.4985 37.1997 37.4327 37.3169 37.3155C37.4342 37.1983 37.5 37.0392 37.5 36.8735V18.6047C37.5 18.439 37.4342 18.28 37.3169 18.1628C37.1997 18.0456 37.0408 17.9797 36.875 17.9797C36.7092 17.9797 36.5503 18.0456 36.4331 18.1628C36.3158 18.28 36.25 18.439 36.25 18.6047V36.2485H3.75V3.74854H36.25V12.5384C36.25 12.7042 36.3158 12.8633 36.4331 12.9805C36.5503 13.0977 36.7092 13.1634 36.875 13.1634C37.0408 13.1634 37.1997 13.0977 37.3169 12.9805C37.4342 12.8633 37.5 12.7042 37.5 12.5384V3.12354C37.5 2.95777 37.4342 2.79877 37.3169 2.68156C37.1997 2.56435 37.0408 2.49854 36.875 2.49854H3.125ZM36.865 14.3985C36.7829 14.3998 36.7019 14.4173 36.6266 14.4499C36.5512 14.4825 36.4831 14.5296 36.426 14.5886C36.3689 14.6476 36.3239 14.7172 36.2937 14.7935C36.2635 14.8699 36.2487 14.9515 36.25 15.0336V16.2761C36.25 16.4418 36.3158 16.6008 36.4331 16.718C36.5503 16.8352 36.7092 16.9011 36.875 16.9011C37.0408 16.9011 37.1997 16.8352 37.3169 16.718C37.4342 16.6008 37.5 16.4418 37.5 16.2761V15.0336C37.5014 14.9498 37.4859 14.8666 37.4544 14.789C37.423 14.7113 37.3763 14.6407 37.317 14.5814C37.2578 14.5222 37.1872 14.4755 37.1096 14.4441C37.0319 14.4127 36.9488 14.3971 36.865 14.3985Z" fill="white"/>
<path id="Vector_6" fill-rule="evenodd" clip-rule="evenodd" d="M3.125 7.49854V8.74854H36.875V7.49854H3.125Z" fill="white"/>
<path id="Vector_7" d="M6.25 5.625C6.25 5.79076 6.18415 5.94968 6.06694 6.06689C5.94973 6.1841 5.79076 6.25 5.625 6.25C5.45924 6.25 5.30027 6.1841 5.18306 6.06689C5.06585 5.94968 5 5.79076 5 5.625C5 5.45924 5.06585 5.30016 5.18306 5.18295C5.30027 5.06574 5.45924 5 5.625 5C5.79076 5 5.94973 5.06574 6.06694 5.18295C6.18415 5.30016 6.25 5.45924 6.25 5.625ZM8.75 5.625C8.75 5.79076 8.68415 5.94968 8.56694 6.06689C8.44973 6.1841 8.29076 6.25 8.125 6.25C7.95924 6.25 7.80027 6.1841 7.68306 6.06689C7.56585 5.94968 7.5 5.79076 7.5 5.625C7.5 5.45924 7.56585 5.30016 7.68306 5.18295C7.80027 5.06574 7.95924 5 8.125 5C8.29076 5 8.44973 5.06574 8.56694 5.18295C8.68415 5.30016 8.75 5.45924 8.75 5.625ZM11.25 5.625C11.25 5.79076 11.1842 5.94968 11.0669 6.06689C10.9497 6.1841 10.7908 6.25 10.625 6.25C10.4592 6.25 10.3003 6.1841 10.1831 6.06689C10.0658 5.94968 10 5.79076 10 5.625C10 5.45924 10.0658 5.30016 10.1831 5.18295C10.3003 5.06574 10.4592 5 10.625 5C10.7908 5 10.9497 5.06574 11.0669 5.18295C11.1842 5.30016 11.25 5.45924 11.25 5.625Z" fill="white"/>
</g>
</g>
</svg>
