<svg width="60" height="60" viewBox="0 0 60 60" fill="none" xmlns="http://www.w3.org/2000/svg">
<g id="Design" clip-path="url(#clip0_660_113)">
<g id="Expanded">
<path id="Vector" d="M55 60H5C2.2425 60 0 57.7575 0 55V17.5C0 14.7425 2.2425 12.5 5 12.5H30C30.3315 12.5 30.6495 12.6317 30.8839 12.8661C31.1183 13.1005 31.25 13.4185 31.25 13.75C31.25 14.0815 31.1183 14.3995 30.8839 14.6339C30.6495 14.8683 30.3315 15 30 15H5C3.62125 15 2.5 16.1212 2.5 17.5V55C2.5 56.3787 3.62125 57.5 5 57.5H55C56.3787 57.5 57.5 56.3787 57.5 55V17.5C57.5 16.1212 56.3787 15 55 15C54.6685 15 54.3505 14.8683 54.1161 14.6339C53.8817 14.3995 53.75 14.0815 53.75 13.75C53.75 13.4185 53.8817 13.1005 54.1161 12.8661C54.3505 12.6317 54.6685 12.5 55 12.5C57.7575 12.5 60 14.7425 60 17.5V55C60 57.7575 57.7575 60 55 60Z" fill="white"/>
<path id="Vector_2" d="M55 55H12.5V17.5H25C25.3315 17.5 25.6495 17.6317 25.8839 17.8661C26.1183 18.1005 26.25 18.4185 26.25 18.75C26.25 19.0815 26.1183 19.3995 25.8839 19.6339C25.6495 19.8683 25.3315 20 25 20H15V52.5H52.5V20H50C49.6685 20 49.3505 19.8683 49.1161 19.6339C48.8817 19.3995 48.75 19.0815 48.75 18.75C48.75 18.4185 48.8817 18.1005 49.1161 17.8661C49.3505 17.6317 49.6685 17.5 50 17.5H55V55Z" fill="white"/>
<path id="Vector_3" d="M10 52.5H0V20H10V52.5ZM2.5 50H7.5V22.5H2.5V50Z" fill="white"/>
<path id="Vector_4" d="M21.8 34.45L25.0988 24.0787L47.5888 1.58999C49.4775 -0.300015 52.7713 -0.300015 54.66 1.58999C55.5965 2.52811 56.1224 3.79947 56.1224 5.12498C56.1224 6.4505 55.5965 7.72186 54.66 8.65998L32.1713 31.15L21.8 34.45ZM27.2975 25.4162L25.6475 30.6012L30.8325 28.9512L52.8925 6.89373C53.8675 5.91873 53.8675 4.33373 52.8925 3.35874C51.9475 2.41374 50.3013 2.41374 49.3563 3.35874L27.2975 25.4162Z" fill="white"/>
<path id="Vector_5" d="M1.25 30H8.75V32.5H1.25V30Z" fill="white"/>
<path id="Vector_6" d="M1.25 40H8.75V42.5H1.25V40Z" fill="white"/>
<path id="Vector_7" d="M52.0074 10.795C51.8432 10.7952 51.6807 10.7629 51.529 10.7001C51.3773 10.6372 51.2396 10.545 51.1237 10.4288L45.8199 5.12502C45.7039 5.00896 45.6118 4.87118 45.549 4.71955C45.4862 4.56791 45.4539 4.40539 45.4539 4.24127C45.4539 4.07714 45.4862 3.91462 45.549 3.76298C45.6118 3.61135 45.7039 3.47357 45.8199 3.35752C45.936 3.24146 46.0738 3.1494 46.2254 3.08659C46.377 3.02378 46.5395 2.99146 46.7037 2.99146C46.8678 2.99146 47.0303 3.02378 47.1819 3.08659C47.3336 3.1494 47.4714 3.24146 47.5874 3.35752L52.8912 8.66127C53.0665 8.83585 53.1861 9.05859 53.2347 9.30124C53.2832 9.54389 53.2586 9.79549 53.1639 10.0241C53.0692 10.2527 52.9087 10.4481 52.7028 10.5853C52.4969 10.7226 52.2549 10.7956 52.0074 10.795Z" fill="white"/>
<path id="Vector_8" d="M44.9376 17.8662C44.7734 17.8664 44.6108 17.8341 44.4592 17.7712C44.3075 17.7084 44.1698 17.6162 44.0538 17.4999L38.7501 12.1962C38.634 12.0801 38.542 11.9423 38.4792 11.7907C38.4164 11.6391 38.384 11.4766 38.384 11.3124C38.384 11.1483 38.4164 10.9858 38.4792 10.8342C38.542 10.6825 38.634 10.5447 38.7501 10.4287C38.8661 10.3126 39.0039 10.2206 39.1556 10.1578C39.3072 10.0949 39.4697 10.0626 39.6338 10.0626C39.798 10.0626 39.9605 10.0949 40.1121 10.1578C40.2638 10.2206 40.4015 10.3126 40.5176 10.4287L45.8213 15.7324C45.9967 15.907 46.1163 16.1298 46.1648 16.3724C46.2134 16.6151 46.1888 16.8667 46.0941 17.0953C45.9994 17.3239 45.8389 17.5192 45.633 17.6565C45.4271 17.7937 45.1851 17.8667 44.9376 17.8662Z" fill="white"/>
<path id="Vector_9" d="M31.5025 31.3012C31.3384 31.3014 31.1758 31.2691 31.0241 31.2063C30.8725 31.1434 30.7347 31.0512 30.6188 30.935L25.315 25.6312C25.0807 25.3969 24.949 25.079 24.949 24.7475C24.949 24.416 25.0807 24.0981 25.315 23.8637C25.5494 23.6294 25.8673 23.4977 26.1988 23.4977C26.5303 23.4977 26.8482 23.6294 27.0825 23.8637L32.3863 29.1675C32.5617 29.3421 32.6812 29.5648 32.7298 29.8075C32.7783 30.0501 32.7537 30.3017 32.659 30.5303C32.5643 30.759 32.4038 30.9543 32.1979 31.0915C31.992 31.2288 31.75 31.3018 31.5025 31.3012Z" fill="white"/>
<path id="Vector_10" d="M21.25 36.2499C21.0026 36.2505 20.7606 36.1775 20.5546 36.0402C20.3487 35.903 20.1883 35.7076 20.0936 35.479C19.9989 35.2504 19.9743 34.9988 20.0228 34.7562C20.0714 34.5135 20.1909 34.2908 20.3663 34.1162L22.84 31.6424C23.0744 31.408 23.3923 31.2764 23.7238 31.2764C24.0553 31.2764 24.3732 31.408 24.6075 31.6424C24.8419 31.8768 24.9736 32.1947 24.9736 32.5262C24.9736 32.8576 24.8419 33.1755 24.6075 33.4099L22.1338 35.8837C22.0179 35.9999 21.8801 36.0921 21.7285 36.155C21.5768 36.2178 21.4142 36.2501 21.25 36.2499Z" fill="white"/>
</g>
</g>
<defs>
<clipPath id="clip0_660_113">
<rect width="60" height="60" fill="white"/>
</clipPath>
</defs>
</svg>
