<svg width="61" height="60" viewBox="0 0 61 60" fill="none" xmlns="http://www.w3.org/2000/svg">
<path d="M37.1875 32.8125H33.4375V34.6875H37.1875V32.8125Z" fill="white"/>
<path d="M42.8125 32.8125H39.0625V34.6875H42.8125V32.8125Z" fill="white"/>
<path d="M48.4375 32.8125H44.6875V34.6875H48.4375V32.8125Z" fill="white"/>
<path d="M2.69684 38.8031C2.59835 38.9363 2.53692 39.0933 2.5188 39.258C2.50069 39.4226 2.52654 39.5892 2.59372 39.7406C2.66421 39.9072 2.78138 40.0498 2.93108 40.1512C3.08079 40.2527 3.25665 40.3087 3.43747 40.3125H11.4343L12.8125 44.4094L15.7093 51.9094C15.7486 52.0017 15.8024 52.0872 15.8687 52.1625C15.738 52.4581 15.6679 52.7769 15.6625 53.1V55.65C15.6648 56.2992 15.9212 56.9218 16.3768 57.3843C16.8323 57.8469 17.4508 58.1128 18.1 58.125H28.15C28.8056 58.1225 29.4337 57.861 29.8973 57.3974C30.3609 56.9337 30.6225 56.3057 30.625 55.65V53.1C30.6173 52.7771 30.5473 52.4588 30.4187 52.1625C30.4945 52.0784 30.552 51.9794 30.5875 51.8719L32.1625 47.1844C32.3968 46.4804 32.5109 45.7419 32.5 45V40.3125H57.8125C57.9882 40.3129 58.1604 40.2638 58.3096 40.171C58.4588 40.0782 58.5789 39.9453 58.6562 39.7875C58.7234 39.6361 58.7492 39.4695 58.7311 39.3048C58.713 39.1402 58.6516 38.9832 58.5531 38.85L52.1875 30.6187V2.8125C52.1875 2.56386 52.0887 2.3254 51.9129 2.14959C51.7371 1.97377 51.4986 1.875 51.25 1.875H9.99997C9.75133 1.875 9.51287 1.97377 9.33706 2.14959C9.16124 2.3254 9.06247 2.56386 9.06247 2.8125V30.6187L2.69684 38.8031ZM5.31247 38.4375L10.4218 31.875H15.625V35.0062V34.875L14.7343 35.1562L15.625 34.8563C15.4313 34.2627 15.0551 33.7455 14.55 33.3784C14.045 33.0114 13.4368 32.8133 12.8125 32.8125C12.5251 32.8087 12.2393 32.8563 11.9687 32.9531C11.6272 33.071 11.3124 33.255 11.0421 33.4947C10.7718 33.7344 10.5515 34.025 10.3937 34.35C10.045 35.0565 9.99101 35.8725 10.2437 36.6188L10.825 38.4375H5.31247ZM19.375 20.625V17.9062C20.2603 18.0868 21.0746 18.5193 21.7199 19.1519C22.3651 19.7844 22.8138 20.5899 23.0119 21.4715C23.21 22.3531 23.1491 23.2731 22.8365 24.1209C22.5239 24.9687 21.973 25.7081 21.25 26.25V24.5156C21.25 23.7697 20.9537 23.0543 20.4262 22.5269C19.8988 21.9994 19.1834 21.7031 18.4375 21.7031C17.6915 21.7031 16.9762 21.9994 16.4487 22.5269C15.9213 23.0543 15.625 23.7697 15.625 24.5156V26.25C14.902 25.7081 14.351 24.9687 14.0384 24.1209C13.7258 23.2731 13.6649 22.3531 13.863 21.4715C14.0611 20.5899 14.5098 19.7844 15.1551 19.1519C15.8003 18.5193 16.6146 18.0868 17.5 17.9062V20.625H19.375ZM28.75 55.65C28.75 55.8091 28.6868 55.9617 28.5742 56.0743C28.4617 56.1868 28.3091 56.25 28.15 56.25H18.1C17.9408 56.25 17.7882 56.1868 17.6757 56.0743C17.5632 55.9617 17.5 55.8091 17.5 55.65V53.1C17.5 52.9409 17.5632 52.7883 17.6757 52.6757C17.7882 52.5632 17.9408 52.5 18.1 52.5H28.15C28.3091 52.5 28.4617 52.5632 28.5742 52.6757C28.6868 52.7883 28.75 52.9409 28.75 53.1V55.65ZM30.625 45C30.6241 45.5129 30.5418 46.0223 30.3812 46.5094L29.0125 50.625H17.2L14.5375 43.7812L12.1 36.2812L12.0343 36.0656L11.0968 36.3375L11.9875 36.0375C11.9365 35.898 11.9144 35.7497 11.9224 35.6014C11.9305 35.4532 11.9686 35.3081 12.0343 35.175C12.083 35.0647 12.1552 34.9665 12.2459 34.8871C12.3366 34.8077 12.4436 34.7492 12.5593 34.7156C12.6402 34.686 12.7271 34.6763 12.8125 34.6875C13.0278 34.7069 13.2323 34.7905 13.3995 34.9276C13.5667 35.0647 13.6888 35.2489 13.75 35.4562L15.5781 41.0812V41.25H17.4531V24.5156C17.4468 24.3802 17.4673 24.2448 17.5134 24.1173C17.5594 23.9897 17.6302 23.8725 17.7217 23.7724C17.8131 23.6723 17.9234 23.5911 18.0462 23.5337C18.169 23.4762 18.302 23.4435 18.4375 23.4375C18.7027 23.4614 18.9484 23.587 19.1232 23.7879C19.2979 23.9889 19.3881 24.2496 19.375 24.5156V38.4375H21.25V32.8125C21.25 32.5639 21.3487 32.3254 21.5246 32.1496C21.7004 31.9738 21.9388 31.875 22.1875 31.875C22.4361 31.875 22.6746 31.9738 22.8504 32.1496C23.0262 32.3254 23.125 32.5639 23.125 32.8125V40.3125H25V34.6875C25.0024 34.5237 25.0442 34.363 25.1218 34.2188C25.2242 34.0381 25.3836 33.8966 25.575 33.8164C25.7665 33.7361 25.9791 33.7216 26.1797 33.7753C26.3802 33.8289 26.5573 33.9475 26.6831 34.1126C26.8089 34.2777 26.8764 34.4799 26.875 34.6875V42.1875H28.75V36.5625C28.7482 36.4257 28.7764 36.2901 28.8326 36.1654C28.8888 36.0406 28.9716 35.9297 29.0753 35.8403C29.1789 35.751 29.3008 35.6854 29.4325 35.6482C29.5642 35.611 29.7024 35.6031 29.8375 35.625C30.0733 35.689 30.28 35.8318 30.4233 36.0296C30.5666 36.2275 30.6378 36.4685 30.625 36.7125V45ZM32.5 38.4375V36.7125C32.5219 36.2432 32.426 35.7759 32.2209 35.3532C32.0158 34.9305 31.708 34.5659 31.3258 34.2928C30.9436 34.0196 30.499 33.8466 30.0327 33.7894C29.5663 33.7323 29.0931 33.7928 28.6562 33.9656C28.5927 33.7247 28.4948 33.4943 28.3656 33.2812C28.0372 32.6889 27.5002 32.2399 26.8591 32.0216C26.2179 31.8032 25.5185 31.8312 24.8968 32.1C24.8968 32.025 24.85 31.95 24.8312 31.875H50.7906L55.9375 38.4375H32.5ZM10.9375 3.75H50.3125V30H21.25V28.4062C22.5962 27.7677 23.685 26.69 24.3374 25.3504C24.9899 24.0108 25.167 22.4891 24.8397 21.0355C24.5124 19.5819 23.7002 18.283 22.5367 17.3522C21.3731 16.4215 19.9275 15.9145 18.4375 15.9145C16.9475 15.9145 15.5018 16.4215 14.3383 17.3522C13.1747 18.283 12.3625 19.5819 12.0352 21.0355C11.708 22.4891 11.8851 24.0108 12.5375 25.3504C13.1899 26.69 14.2787 27.7677 15.625 28.4062V30H10.9375V3.75Z" fill="white"/>
<path d="M40 35.625H36.25V37.5H40V35.625Z" fill="white"/>
<path d="M45.625 35.625H41.875V37.5H45.625V35.625Z" fill="white"/>
<path d="M51.25 35.625H47.5V37.5H51.25V35.625Z" fill="white"/>
<path d="M34.375 25.0031V26.25C34.375 26.9959 34.6713 27.7113 35.1988 28.2387C35.7262 28.7662 36.4416 29.0625 37.1875 29.0625C37.9334 29.0625 38.6488 28.7662 39.1762 28.2387C39.7037 27.7113 40 26.9959 40 26.25V25.0031C41.3932 24.3865 42.5775 23.3789 43.4095 22.1026C44.2416 20.8263 44.6855 19.336 44.6875 17.8125C44.6875 15.8234 43.8973 13.9157 42.4908 12.5092C41.0843 11.1027 39.1766 10.3125 37.1875 10.3125C35.1984 10.3125 33.2907 11.1027 31.8842 12.5092C30.4777 13.9157 29.6875 15.8234 29.6875 17.8125C29.6883 19.3363 30.1318 20.8271 30.9639 22.1036C31.7961 23.3801 32.9811 24.3874 34.375 25.0031ZM38.125 26.25C38.125 26.4986 38.0262 26.7371 37.8504 26.9129C37.6746 27.0887 37.4361 27.1875 37.1875 27.1875C36.9389 27.1875 36.7004 27.0887 36.5246 26.9129C36.3488 26.7371 36.25 26.4986 36.25 26.25V25.3125H38.125V26.25ZM36.25 18.75C36.25 18.5646 36.305 18.3833 36.408 18.2292C36.511 18.075 36.6574 17.9548 36.8287 17.8839C37 17.8129 37.1885 17.7943 37.3704 17.8305C37.5523 17.8667 37.7193 17.956 37.8504 18.0871C37.9815 18.2182 38.0708 18.3852 38.107 18.5671C38.1432 18.749 38.1246 18.9375 38.0536 19.1088C37.9827 19.2801 37.8625 19.4265 37.7083 19.5295C37.5542 19.6325 37.3729 19.6875 37.1875 19.6875C36.9389 19.6875 36.7004 19.5887 36.5246 19.4129C36.3488 19.2371 36.25 18.9986 36.25 18.75ZM37.1875 12.1875C38.6793 12.1875 40.1101 12.7801 41.165 13.835C42.2199 14.8899 42.8125 16.3207 42.8125 17.8125C42.8102 19.0339 42.4369 20.2257 41.7421 21.2302C41.0474 22.2347 40.0639 23.0044 38.9219 23.4375H38.125V21.3937C38.7505 21.1726 39.2777 20.7374 39.6134 20.1652C39.9491 19.5929 40.0717 18.9204 39.9595 18.2665C39.8473 17.6126 39.5076 17.0194 39.0003 16.5918C38.4931 16.1641 37.851 15.9296 37.1875 15.9296C36.524 15.9296 35.8819 16.1641 35.3747 16.5918C34.8674 17.0194 34.5277 17.6126 34.4155 18.2665C34.3033 18.9204 34.4259 19.5929 34.7616 20.1652C35.0973 20.7374 35.6245 21.1726 36.25 21.3937V23.4375H35.4531C34.3111 23.0044 33.3276 22.2347 32.6329 21.2302C31.9381 20.2257 31.5648 19.0339 31.5625 17.8125C31.5625 16.3207 32.1551 14.8899 33.21 13.835C34.2649 12.7801 35.6957 12.1875 37.1875 12.1875Z" fill="white"/>
<path d="M49.375 16.875H45.625V18.75H49.375V16.875Z" fill="white"/>
<path d="M28.75 16.875H25V18.75H28.75V16.875Z" fill="white"/>
<path d="M42.7734 23.5766L41.7422 25.1328L44.8547 27.1953L45.8859 25.6391L42.7734 23.5766Z" fill="white"/>
<path d="M28.3321 9.53927L27.292 11.0994L30.4122 13.1795L31.4522 11.6194L28.3321 9.53927Z" fill="white"/>
<path d="M31.0506 23.5981L27.9304 25.6782L28.9705 27.2383L32.0907 25.1582L31.0506 23.5981Z" fill="white"/>
<path d="M46.6378 9.53047L43.5176 11.6106L44.5576 13.1707L47.6778 11.0906L46.6378 9.53047Z" fill="white"/>
<path d="M51.25 52.5V48.75C51.25 47.2582 50.6573 45.8274 49.6024 44.7725C48.5476 43.7176 47.1168 43.125 45.625 43.125C44.1331 43.125 42.7024 43.7176 41.6475 44.7725C40.5926 45.8274 40 47.2582 40 48.75V52.5C40 53.9918 40.5926 55.4226 41.6475 56.4775C42.7024 57.5324 44.1331 58.125 45.625 58.125C47.1168 58.125 48.5476 57.5324 49.6024 56.4775C50.6573 55.4226 51.25 53.9918 51.25 52.5ZM49.2437 47.8125H46.5625V45.1312C47.2073 45.2996 47.7957 45.6367 48.267 46.108C48.7382 46.5793 49.0754 47.1676 49.2437 47.8125ZM44.6875 45.1312V47.8125H42.0062C42.1746 47.1676 42.5117 46.5793 42.983 46.108C43.4542 45.6367 44.0426 45.2996 44.6875 45.1312ZM41.875 52.5V49.6875H49.375V52.5C49.375 53.4946 48.9799 54.4484 48.2766 55.1516C47.5734 55.8549 46.6195 56.25 45.625 56.25C44.6304 56.25 43.6766 55.8549 42.9733 55.1516C42.2701 54.4484 41.875 53.4946 41.875 52.5ZM39.0625 48.75V46.875C38.2775 46.994 37.5611 47.3905 37.0435 47.9926C36.5259 48.5946 36.2412 49.3623 36.2412 50.1562C36.2412 50.9502 36.5259 51.7179 37.0435 52.3199C37.5611 52.922 38.2775 53.3185 39.0625 53.4375V51.5625C38.5656 51.5625 38.125 50.9062 38.125 50.1562C38.125 49.4062 38.5656 48.75 39.0625 48.75Z" fill="white"/>
<path d="M39.0626 44.0625C37.529 44.1829 36.0971 44.8771 35.0528 46.0066C34.0085 47.1362 33.4285 48.6179 33.4285 50.1562C33.4285 51.6946 34.0085 53.1763 35.0528 54.3059C36.0971 55.4354 37.529 56.1296 39.0626 56.25V54.375C38.0276 54.2553 37.0728 53.7593 36.3797 52.9815C35.6866 52.2036 35.3036 51.1981 35.3036 50.1562C35.3036 49.1144 35.6866 48.1089 36.3797 47.331C37.0728 46.5532 38.0276 46.0572 39.0626 45.9375V44.0625ZM55.9376 24.8438C55.9921 24.0374 55.728 23.2418 55.2021 22.6282C54.6761 22.0146 53.9303 21.6319 53.1251 21.5625V23.4375C53.6219 23.4375 54.0626 24.0938 54.0626 24.8438C54.0626 25.5938 53.6219 26.25 53.1251 26.25V28.125C53.9303 28.0556 54.6761 27.6729 55.2021 27.0593C55.728 26.4457 55.9921 25.6501 55.9376 24.8438Z" fill="white"/>
<path d="M53.125 18.75V20.625C54.1805 20.6902 55.1674 21.1705 55.87 21.961C56.5727 22.7514 56.9339 23.7878 56.875 24.8438C56.9339 25.8997 56.5727 26.9361 55.87 27.7265C55.1674 28.517 54.1805 28.9973 53.125 29.0625V30.9375C54.6777 30.8717 56.1411 30.1936 57.1953 29.0517C58.2494 27.9097 58.8084 26.3968 58.75 24.8438C58.8084 23.2907 58.2494 21.7778 57.1953 20.6358C56.1411 19.4939 54.6777 18.8158 53.125 18.75ZM8.12496 23.4375V21.5625C7.31975 21.6319 6.57394 22.0146 6.04797 22.6282C5.522 23.2418 5.25789 24.0374 5.31246 24.8438C5.25789 25.6501 5.522 26.4457 6.04797 27.0593C6.57394 27.6729 7.31975 28.0556 8.12496 28.125V26.25C7.62809 26.25 7.18746 25.5938 7.18746 24.8438C7.18746 24.0938 7.62809 23.4375 8.12496 23.4375Z" fill="white"/>
<path d="M8.12501 30.9375V29.0625C7.06943 28.9973 6.08255 28.517 5.37993 27.7265C4.6773 26.9361 4.31603 25.8997 4.37501 24.8438C4.31603 23.7878 4.6773 22.7514 5.37993 21.961C6.08255 21.1705 7.06943 20.6902 8.12501 20.625V18.75C6.57229 18.8158 5.10883 19.4939 4.05471 20.6358C3.00059 21.7778 2.4416 23.2907 2.50001 24.8438C2.4416 26.3968 3.00059 27.9097 4.05471 29.0517C5.10883 30.1936 6.57229 30.8717 8.12501 30.9375ZM52.1875 51.5625V53.4375C52.9725 53.3185 53.6888 52.922 54.2065 52.3199C54.7241 51.7179 55.0088 50.9502 55.0088 50.1562C55.0088 49.3623 54.7241 48.5946 54.2065 47.9926C53.6888 47.3905 52.9725 46.994 52.1875 46.875V48.75C52.6844 48.75 53.125 49.4062 53.125 50.1562C53.125 50.9062 52.6844 51.5625 52.1875 51.5625Z" fill="white"/>
<path d="M52.1875 44.0625V45.9375C53.2224 46.0572 54.1773 46.5532 54.8704 47.331C55.5635 48.1089 55.9464 49.1144 55.9464 50.1562C55.9464 51.1981 55.5635 52.2036 54.8704 52.9815C54.1773 53.7593 53.2224 54.2553 52.1875 54.375V56.25C53.7211 56.1296 55.1529 55.4354 56.1972 54.3059C57.2416 53.1763 57.8216 51.6946 57.8216 50.1562C57.8216 48.6179 57.2416 47.1362 56.1972 46.0066C55.1529 44.8771 53.7211 44.1829 52.1875 44.0625Z" fill="white"/>
<path d="M38.125 5.625H36.25V9.375H38.125V5.625Z" fill="white"/>
</svg>
