<svg width="60" height="60" viewBox="0 0 60 60" fill="none" xmlns="http://www.w3.org/2000/svg">
<g id="Diversification">
<path id="Vector" fill-rule="evenodd" clip-rule="evenodd" d="M30 3.39014C36.472 3.39014 41.7188 8.63674 41.7188 15.1089C41.7188 21.5809 36.472 26.8276 30 26.8276C23.528 26.8276 18.2813 21.581 18.2813 15.1089C18.2813 8.63674 23.5279 3.39014 30 3.39014ZM33.4988 12.0279C33.0019 10.8444 32.0556 10.1606 31.0154 9.89697L30.9375 9.87811V9.44627C30.9375 9.19763 30.8387 8.95917 30.6629 8.78336C30.4871 8.60754 30.2486 8.50877 30 8.50877C29.7514 8.50877 29.5129 8.60754 29.3371 8.78336C29.1613 8.95917 29.0625 9.19763 29.0625 9.44627V9.89146C28.52 10.0222 28.0126 10.2632 27.5965 10.6015C26.8908 11.1753 26.4434 12.0086 26.4939 13.048C26.5447 14.0969 27.067 14.7996 27.7942 15.2744C28.4126 15.6781 29.1654 15.8858 29.858 15.9995C30.3779 16.0849 30.9311 16.2187 31.3445 16.4681C31.6486 16.6518 31.8768 16.9178 31.9248 17.3134C31.932 17.3729 31.9358 17.4117 31.9363 17.431C31.9434 17.731 31.7973 17.9616 31.5781 18.1279C31.2758 18.3572 30.8436 18.4934 30.4081 18.5462C30.3041 18.5597 30.1997 18.5682 30.0949 18.5718C29.5816 18.5841 29.0769 18.4595 28.6848 18.1984C28.3738 17.9912 28.1363 17.689 28.0375 17.2924C27.975 17.0551 27.8217 16.8518 27.6107 16.7265C27.3997 16.6011 27.1479 16.5637 26.9095 16.6223C26.6712 16.6809 26.4654 16.8309 26.3367 17.0398C26.2079 17.2487 26.1663 17.4999 26.2211 17.7392C26.443 18.6295 26.9675 19.3024 27.6522 19.7584C28.0733 20.039 28.5558 20.233 29.0625 20.3405V20.7713C29.0625 21.0199 29.1613 21.2584 29.3371 21.4342C29.5129 21.61 29.7514 21.7088 30 21.7088C30.2486 21.7088 30.4871 21.61 30.6629 21.4342C30.8387 21.2584 30.9375 21.0199 30.9375 20.7713V20.359C31.5673 20.2422 32.1989 19.9992 32.706 19.6146C33.3795 19.1037 33.8274 18.3712 33.8039 17.387C33.8023 17.289 33.7961 17.1911 33.7852 17.0937C33.6551 16.0227 33.0772 15.3265 32.3113 14.8641C31.6545 14.4675 30.8732 14.2711 30.1583 14.1537C29.6776 14.0747 29.174 13.9429 28.8124 13.7069C28.5597 13.5419 28.3784 13.3046 28.3616 12.96C28.343 12.5767 28.511 12.2669 28.7758 12.0516C28.994 11.8742 29.2742 11.7505 29.5792 11.6891C29.9043 11.6241 30.2398 11.6323 30.5613 11.7131C31.067 11.8413 31.5277 12.1749 31.7702 12.7528C31.8178 12.8663 31.8873 12.9693 31.9748 13.056C32.0622 13.1426 32.1658 13.2112 32.2797 13.2578C32.3937 13.3044 32.5157 13.3281 32.6387 13.3275C32.7618 13.3269 32.8836 13.3021 32.9971 13.2545C33.1106 13.2069 33.2136 13.1374 33.3002 13.05C33.3868 12.9626 33.4554 12.859 33.502 12.7451C33.5486 12.6312 33.5723 12.5093 33.5717 12.3862C33.5712 12.2631 33.5464 12.1414 33.4988 12.0279ZM30 5.22283C27.2701 5.22283 24.7986 6.32943 23.0097 8.11842C21.2207 9.9074 20.1141 12.379 20.1141 15.1088C20.1141 17.8385 21.2207 20.3101 23.0097 22.0991C24.7988 23.8881 27.2702 24.9947 30 24.9947C32.7298 24.9947 35.2014 23.8881 36.9904 22.0991C38.7793 20.3101 39.8859 17.8385 39.8859 15.1088C39.8859 12.379 38.7793 9.9074 36.9904 8.11842C35.2013 6.32943 32.7298 5.22283 30 5.22283ZM35.6647 9.44416C34.215 7.99455 32.2123 7.09783 30 7.09783C27.7877 7.09783 25.785 7.99455 24.3353 9.44416C22.8857 10.8938 21.989 12.8966 21.989 15.1089C21.989 17.3212 22.8857 19.3239 24.3353 20.7736C25.7849 22.2232 27.7877 23.1199 30 23.1199C32.2123 23.1199 34.2151 22.2232 35.6647 20.7736C37.1143 19.324 38.0111 17.3212 38.0111 15.1089C38.0111 12.8966 37.1143 10.8938 35.6647 9.44416ZM49.5613 37.6495V34.5864H30.9375V37.6495C30.3137 37.5939 29.6863 37.5939 29.0625 37.6495V34.5864H10.4387V37.6495C10.127 37.6218 9.81418 37.6079 9.50122 37.6079C9.18517 37.6079 8.87263 37.6228 8.56372 37.6504V33.6489C8.56372 33.4002 8.66249 33.1618 8.83831 32.986C9.01412 32.8102 9.25258 32.7114 9.50122 32.7114H29.0625V28.6698C29.3724 28.6909 29.6848 28.7026 30 28.7026C30.3152 28.7026 30.6277 28.6909 30.9375 28.6698V32.7114H50.4988C50.7474 32.7114 50.9859 32.8102 51.1617 32.986C51.3375 33.1618 51.4363 33.4002 51.4363 33.6489V37.6504C51.1246 37.6223 50.8118 37.6082 50.4988 37.6079C50.1827 37.6079 49.8701 37.622 49.5613 37.6495ZM50.4988 39.4829C45.7693 39.4829 41.9353 43.317 41.9353 48.0464C41.9353 52.776 45.7693 56.6099 50.4988 56.6099C55.2283 56.6099 59.0623 52.7759 59.0623 48.0464C59.0623 43.3169 55.2283 39.4829 50.4988 39.4829ZM9.50134 48.8393C7.18044 48.8393 5.16833 50.1625 4.17704 52.0951C3.28996 50.9321 2.81051 49.5093 2.81274 48.0465C2.81274 44.352 5.80665 41.3581 9.50122 41.3581C13.1958 41.3581 16.1897 44.352 16.1897 48.0465C16.192 49.5092 15.7126 50.932 14.8255 52.095C13.8347 50.162 11.8226 48.8393 9.50134 48.8393ZM30 48.8393C27.6792 48.8393 25.6671 50.1625 24.6757 52.0951C23.7886 50.9321 23.3092 49.5093 23.3114 48.0465C23.3114 44.352 26.3053 41.3581 29.9999 41.3581C33.6945 41.3581 36.6884 44.352 36.6884 48.0465C36.6906 49.5092 36.2112 50.932 35.3242 52.095C34.3334 50.162 32.3214 48.8393 30 48.8393ZM50.4988 48.8393C48.1779 48.8393 46.1658 50.1625 45.1745 52.0951C44.2874 50.9321 43.808 49.5093 43.8102 48.0465C43.8102 44.352 46.8041 41.3581 50.4987 41.3581C54.1932 41.3581 57.1872 44.352 57.1872 48.0465C57.1894 49.5092 56.71 50.932 55.823 52.095C54.8322 50.162 52.8202 48.8393 50.4988 48.8393ZM9.50122 39.4829C4.77177 39.4829 0.937744 43.317 0.937744 48.0464C0.937744 52.776 4.77177 56.6099 9.50122 56.6099C14.2307 56.6099 18.0647 52.7759 18.0647 48.0464C18.0647 43.3169 14.2308 39.4829 9.50122 39.4829ZM30 39.4829C25.2706 39.4829 21.4365 43.317 21.4365 48.0464C21.4365 52.776 25.2706 56.6099 30 56.6099C34.7295 56.6099 38.5635 52.7759 38.5635 48.0464C38.5635 43.3169 34.7295 39.4829 30 39.4829ZM9.50134 42.3731C7.83142 42.3731 6.47778 43.7269 6.47778 45.3967C6.47778 47.0666 7.83142 48.4203 9.50134 48.4203C11.1711 48.4203 12.5249 47.0666 12.5249 45.3967C12.5249 43.7268 11.1711 42.3731 9.50134 42.3731ZM30 42.3731C28.3302 42.3731 26.9765 43.7269 26.9765 45.3967C26.9765 47.0666 28.3302 48.4203 30 48.4203C31.6699 48.4203 33.0236 47.0666 33.0236 45.3967C33.0236 43.7268 31.6699 42.3731 30 42.3731ZM50.4988 42.3731C52.1686 42.3731 53.5224 43.7269 53.5224 45.3967C53.5224 47.0666 52.1687 48.4203 50.4988 48.4203C48.8289 48.4203 47.4752 47.0666 47.4752 45.3967C47.4752 43.7268 48.829 42.3731 50.4988 42.3731Z" fill="white"/>
</g>
</svg>
