<svg width="60" height="60" viewBox="0 0 60 60" fill="none" xmlns="http://www.w3.org/2000/svg">
<path d="M13.2 8.39995H6V58.7999H46.8V51.5999H54V1.19995H13.2V8.39995ZM44.4 56.3999H8.4V10.8H36V19.1999H44.4V56.3999ZM38.4 12.4967L42.7032 16.8H38.4V12.4967ZM15.6 3.59995H51.6V49.1999H46.8V17.5032L37.6968 8.39995H15.6V3.59995Z" fill="white"/>
<path d="M26.4 16.8H12V31.2H26.4V16.8ZM24 28.8H14.4V19.2H24V28.8ZM30 22.8H40.8V25.2H30V22.8ZM30 28.8H40.8V31.2H30V28.8ZM12 34.8H30V37.2001H12V34.8ZM33.6 34.8H40.8V37.2001H33.6V34.8ZM12 40.8H19.2V43.2001H12V40.8ZM22.8 40.8H40.8V43.2001H22.8V40.8ZM12 46.8001H28.8V49.2001H12V46.8001ZM32.4 46.8001H40.8V49.2001H32.4V46.8001Z" fill="white"/>
</svg>
