<svg width="61" height="60" viewBox="0 0 61 60" fill="none" xmlns="http://www.w3.org/2000/svg">
<g id="Launch">
<path id="33 Launch, Online, Rocket, Seo And Web, Start Up" d="M53.4375 7.49999H40.9375V9.99999H53.4375C53.769 9.99999 54.087 10.1317 54.3214 10.3661C54.5558 10.6005 54.6875 10.9185 54.6875 11.25V37.5H52.1875V13.75C52.1875 13.4185 52.0558 13.1005 51.8214 12.8661C51.587 12.6317 51.269 12.5 50.9375 12.5H40.825V15H49.6875V37.5H12.1875V15H20.9375V12.5H10.9375C10.606 12.5 10.288 12.6317 10.0536 12.8661C9.8192 13.1005 9.6875 13.4185 9.6875 13.75V37.5H7.1875V11.25C7.1875 10.9185 7.3192 10.6005 7.55362 10.3661C7.78804 10.1317 8.10598 9.99999 8.4375 9.99999H20.9375V7.49999H8.4375C7.44294 7.49999 6.48911 7.89508 5.78585 8.59834C5.08259 9.3016 4.6875 10.2554 4.6875 11.25V46.25C4.6875 47.2445 5.08259 48.1984 5.78585 48.9016C6.48911 49.6049 7.44294 50 8.4375 50H25.9375V55H19.6875V57.5H42.1875V55H35.9375V50H53.4375C54.4321 50 55.3859 49.6049 56.0891 48.9016C56.7924 48.1984 57.1875 47.2445 57.1875 46.25V11.25C57.1875 10.2554 56.7924 9.3016 56.0891 8.59834C55.3859 7.89508 54.4321 7.49999 53.4375 7.49999ZM33.4375 55H28.4375V50H33.4375V55ZM53.4375 47.5H8.4375C8.10598 47.5 7.78804 47.3683 7.55362 47.1339C7.3192 46.8994 7.1875 46.5815 7.1875 46.25V40H54.6875V46.25C54.6875 46.5815 54.5558 46.8994 54.3214 47.1339C54.087 47.3683 53.769 47.5 53.4375 47.5ZM25.9375 42.5H35.9375V45H25.9375V42.5ZM17.1875 26.1375V28.75C17.1872 28.9547 17.2372 29.1564 17.3331 29.3373C17.429 29.5182 17.5679 29.6728 17.7375 29.7875C17.9444 29.9265 18.1882 30.0005 18.4375 30C18.596 30.0023 18.7533 29.9725 18.9 29.9125L24.925 27.5H36.95L42.975 29.9125C43.1217 29.9725 43.279 30.0023 43.4375 30C43.6868 30.0005 43.9306 29.9265 44.1375 29.7875C44.3071 29.6728 44.446 29.5182 44.5419 29.3373C44.6378 29.1564 44.6878 28.9547 44.6875 28.75V26.1375C44.6932 24.4435 44.1882 22.7871 43.2383 21.3845C42.2883 19.9819 40.9377 18.8983 39.3625 18.275L38.4375 17.9V9.99999C38.4375 7.02499 33.25 3.64999 31.6625 2.68749C31.4725 2.57778 31.2569 2.52002 31.0375 2.52002C30.8181 2.52002 30.6025 2.57778 30.4125 2.68749C28.75 3.63749 23.4375 7.02499 23.4375 9.99999V17.9L22.5125 18.275C20.9373 18.8983 19.5867 19.9819 18.6367 21.3845C17.6868 22.7871 17.1818 24.4435 17.1875 26.1375ZM42.1875 26.1375V26.9L38.4375 25.4V20.6C39.5455 21.0409 40.4954 21.8046 41.1641 22.792C41.8328 23.7794 42.1893 24.945 42.1875 26.1375ZM25.9375 9.99999C25.9375 9.03749 28.4375 6.82499 31 5.22499C33.4375 6.81249 35.9375 9.02499 35.9375 9.99999V25H25.9375V9.99999ZM23.4375 25.4L19.6875 26.9V26.1375C19.6857 24.945 20.0422 23.7794 20.7109 22.792C21.3795 21.8046 22.3295 21.0409 23.4375 20.6V25.4ZM30.9375 20C31.6792 20 32.4042 19.7801 33.0209 19.368C33.6376 18.9559 34.1182 18.3703 34.402 17.685C34.6859 16.9998 34.7601 16.2458 34.6154 15.5184C34.4708 14.791 34.1136 14.1228 33.5892 13.5983C33.0647 13.0739 32.3965 12.7167 31.6691 12.572C30.9417 12.4273 30.1877 12.5016 29.5024 12.7854C28.8172 13.0693 28.2315 13.5499 27.8195 14.1666C27.4074 14.7833 27.1875 15.5083 27.1875 16.25C27.1875 17.2445 27.5826 18.1984 28.2858 18.9016C28.9891 19.6049 29.9429 20 30.9375 20ZM30.9375 15C31.1847 15 31.4264 15.0733 31.632 15.2106C31.8375 15.348 31.9977 15.5432 32.0924 15.7716C32.187 16 32.2117 16.2514 32.1635 16.4938C32.1152 16.7363 31.9962 16.9591 31.8214 17.1339C31.6466 17.3087 31.4238 17.4277 31.1814 17.476C30.9389 17.5242 30.6876 17.4994 30.4591 17.4048C30.2307 17.3102 30.0355 17.15 29.8982 16.9444C29.7608 16.7389 29.6875 16.4972 29.6875 16.25C29.6875 15.9185 29.8192 15.6005 30.0536 15.3661C30.288 15.1317 30.606 15 30.9375 15ZM27.1875 35V30H29.6875V35H27.1875ZM32.1875 35V30H34.6875V35H32.1875Z" fill="white"/>
</g>
</svg>
