<svg width="60" height="60" viewBox="0 0 60 60" fill="none" xmlns="http://www.w3.org/2000/svg">
<g id="layout" clip-path="url(#clip0_665_223)">
<path id="Vector" d="M55.3125 9.375H4.6875C3.4443 9.375 2.25201 9.86886 1.37294 10.7479C0.49386 11.627 0 12.8193 0 14.0625L0 47.8125C0 49.0557 0.49386 50.248 1.37294 51.1271C2.25201 52.0061 3.4443 52.5 4.6875 52.5H55.3125C56.5557 52.5 57.748 52.0061 58.6271 51.1271C59.5061 50.248 60 49.0557 60 47.8125V14.0625C60 12.8193 59.5061 11.627 58.6271 10.7479C57.748 9.86886 56.5557 9.375 55.3125 9.375ZM58.125 47.8125C58.125 48.5584 57.8287 49.2738 57.3012 49.8012C56.7738 50.3287 56.0584 50.625 55.3125 50.625H4.6875C3.94158 50.625 3.22621 50.3287 2.69876 49.8012C2.17132 49.2738 1.875 48.5584 1.875 47.8125V16.875H58.125V47.8125ZM58.125 15H1.875V14.0625C1.875 13.3166 2.17132 12.6012 2.69876 12.0738C3.22621 11.5463 3.94158 11.25 4.6875 11.25H55.3125C56.0584 11.25 56.7738 11.5463 57.3012 12.0738C57.8287 12.6012 58.125 13.3166 58.125 14.0625V15ZM6.5625 46.875H34.6875C34.9361 46.875 35.1746 46.7762 35.3504 46.6004C35.5262 46.4246 35.625 46.1861 35.625 45.9375V40.3125C35.625 40.0639 35.5262 39.8254 35.3504 39.6496C35.1746 39.4738 34.9361 39.375 34.6875 39.375H6.5625C6.31386 39.375 6.0754 39.4738 5.89959 39.6496C5.72377 39.8254 5.625 40.0639 5.625 40.3125V45.9375C5.625 46.1861 5.72377 46.4246 5.89959 46.6004C6.0754 46.7762 6.31386 46.875 6.5625 46.875ZM7.5 41.25H33.75V45H7.5V41.25ZM38.4375 46.875H53.4375C53.6861 46.875 53.9246 46.7762 54.1004 46.6004C54.2762 46.4246 54.375 46.1861 54.375 45.9375V21.5625C54.375 21.3139 54.2762 21.0754 54.1004 20.8996C53.9246 20.7238 53.6861 20.625 53.4375 20.625H38.4375C38.1889 20.625 37.9504 20.7238 37.7746 20.8996C37.5988 21.0754 37.5 21.3139 37.5 21.5625V45.9375C37.5 46.1861 37.5988 46.4246 37.7746 46.6004C37.9504 46.7762 38.1889 46.875 38.4375 46.875ZM39.375 22.5H52.5V45H39.375V22.5ZM5.67 36.7875C5.6816 36.8479 5.69918 36.9069 5.7225 36.9638C5.7225 36.9769 5.7225 36.9919 5.73375 37.0031C5.745 37.0144 5.77125 37.035 5.78438 37.0556C5.84938 37.1582 5.93415 37.2468 6.03375 37.3162C6.06474 37.3403 6.09731 37.3622 6.13125 37.3819C6.26302 37.4563 6.41119 37.4969 6.5625 37.5H34.6875C34.838 37.4972 34.9855 37.4572 35.1169 37.3837C35.1508 37.3641 35.1834 37.3422 35.2144 37.3181C35.314 37.2487 35.3987 37.1601 35.4637 37.0575C35.4769 37.0369 35.5031 37.0275 35.5144 37.005C35.5256 36.9825 35.5144 36.9788 35.5256 36.9656C35.5699 36.8477 35.6032 36.7259 35.625 36.6019C35.625 36.5887 35.625 36.5756 35.625 36.5625V21.5625C35.625 21.5475 35.625 21.5363 35.625 21.5231C35.6061 21.4 35.576 21.2789 35.535 21.1613C35.535 21.1481 35.535 21.1331 35.5238 21.1219C35.4993 21.0868 35.4724 21.0536 35.4431 21.0225C35.4069 20.9675 35.3648 20.9165 35.3175 20.8706C35.2226 20.7973 35.1202 20.7345 35.0119 20.6831C34.9509 20.6641 34.888 20.6515 34.8244 20.6456C34.7794 20.6352 34.7336 20.6283 34.6875 20.625H6.5625C6.51299 20.6309 6.46407 20.6409 6.41625 20.655C6.36104 20.6608 6.30645 20.6714 6.25313 20.6869C6.19109 20.7115 6.13198 20.743 6.07687 20.7806C6.03061 20.8061 5.98669 20.8356 5.94562 20.8688C5.8969 20.9157 5.85351 20.9679 5.81625 21.0244C5.7871 21.0549 5.76016 21.0875 5.73563 21.1219C5.73563 21.135 5.73562 21.1481 5.72437 21.1613C5.68019 21.2786 5.64693 21.3997 5.625 21.5231C5.625 21.5381 5.625 21.5494 5.625 21.5625V36.5625C5.625 36.5775 5.625 36.5887 5.625 36.6019C5.63352 36.6651 5.6486 36.7274 5.67 36.7875ZM10.3125 35.625L20.625 30.1256L30.9375 35.625H10.3125ZM33.75 34.9988L22.6181 29.0625L33.75 23.1262V34.9988ZM30.9375 22.5L20.625 27.9994L10.3125 22.5H30.9375ZM7.5 23.1262L18.6319 29.0625L7.5 34.9988V23.1262Z" fill="white"/>
</g>
<defs>
<clipPath id="clip0_665_223">
<rect width="60" height="60" fill="white"/>
</clipPath>
</defs>
</svg>
