<svg width="61" height="60" viewBox="0 0 61 60" fill="none" xmlns="http://www.w3.org/2000/svg">
<g clip-path="url(#clip0_660_160)">
<path d="M25.6251 5.625H35.0001C35.2487 5.625 35.4872 5.52623 35.663 5.35041C35.8388 5.1746 35.9376 4.93614 35.9376 4.6875C35.9376 4.43886 35.8388 4.2004 35.663 4.02459C35.4872 3.84877 35.2487 3.75 35.0001 3.75H25.6251C25.3765 3.75 25.138 3.84877 24.9622 4.02459C24.7864 4.2004 24.6876 4.43886 24.6876 4.6875C24.6876 4.93614 24.7864 5.1746 24.9622 5.35041C25.138 5.52623 25.3765 5.625 25.6251 5.625ZM5.0001 11.25H14.3751C14.6237 11.25 14.8622 11.1512 15.038 10.9754C15.2138 10.7996 15.3126 10.5611 15.3126 10.3125C15.3126 10.0639 15.2138 9.8254 15.038 9.64959C14.8622 9.47377 14.6237 9.375 14.3751 9.375H5.0001C4.75146 9.375 4.513 9.47377 4.33719 9.64959C4.16137 9.8254 4.0626 10.0639 4.0626 10.3125C4.0626 10.5611 4.16137 10.7996 4.33719 10.9754C4.513 11.1512 4.75146 11.25 5.0001 11.25ZM23.7501 13.125H26.227C26.3867 13.1251 26.5437 13.1659 26.6831 13.2437C26.8226 13.3215 26.9399 13.4336 27.0238 13.5694L27.9201 15.0169C28.1721 15.4247 28.5242 15.7613 28.943 15.9948C29.3617 16.2283 29.8332 16.3508 30.3126 16.3508C30.792 16.3508 31.2635 16.2283 31.6822 15.9948C32.101 15.7613 32.4531 15.4247 32.7051 15.0169L33.6013 13.5694C33.6853 13.4336 33.8026 13.3215 33.9421 13.2437C34.0815 13.1659 34.2385 13.1251 34.3982 13.125H36.8751C37.621 13.125 38.3364 12.8287 38.8638 12.3012C39.3913 11.7738 39.6876 11.0584 39.6876 10.3125V2.8125C39.6876 2.06658 39.3913 1.35121 38.8638 0.823762C38.3364 0.296316 37.621 0 36.8751 0L23.7501 0C23.0042 0 22.2888 0.296316 21.7614 0.823762C21.2339 1.35121 20.9376 2.06658 20.9376 2.8125V10.3125C20.9376 11.0584 21.2339 11.7738 21.7614 12.3012C22.2888 12.8287 23.0042 13.125 23.7501 13.125ZM22.8126 2.8125C22.8126 2.56386 22.9114 2.3254 23.0872 2.14959C23.263 1.97377 23.5015 1.875 23.7501 1.875H36.8751C37.1237 1.875 37.3622 1.97377 37.538 2.14959C37.7138 2.3254 37.8126 2.56386 37.8126 2.8125V10.3125C37.8126 10.5611 37.7138 10.7996 37.538 10.9754C37.3622 11.1512 37.1237 11.25 36.8751 11.25H34.3982C33.9185 11.2481 33.4464 11.3698 33.0274 11.6033C32.6084 11.8368 32.2565 12.1742 32.0057 12.5831L31.1095 14.0306C31.0255 14.1667 30.9081 14.279 30.7685 14.357C30.6288 14.4349 30.4716 14.4758 30.3117 14.4758C30.1518 14.4758 29.9945 14.4349 29.8549 14.357C29.7152 14.279 29.5978 14.1667 29.5138 14.0306L28.6251 12.5831C28.3738 12.1734 28.0211 11.8354 27.601 11.6019C27.1809 11.3683 26.7076 11.2471 26.227 11.25H23.7501C23.5015 11.25 23.263 11.1512 23.0872 10.9754C22.9114 10.7996 22.8126 10.5611 22.8126 10.3125V2.8125ZM25.6251 9.375H35.0001C35.2487 9.375 35.4872 9.27623 35.663 9.10041C35.8388 8.9246 35.9376 8.68614 35.9376 8.4375C35.9376 8.18886 35.8388 7.9504 35.663 7.77459C35.4872 7.59877 35.2487 7.5 35.0001 7.5H25.6251C25.3765 7.5 25.138 7.59877 24.9622 7.77459C24.7864 7.9504 24.6876 8.18886 24.6876 8.4375C24.6876 8.68614 24.7864 8.9246 24.9622 9.10041C25.138 9.27623 25.3765 9.375 25.6251 9.375ZM5.0001 15H14.3751C14.6237 15 14.8622 14.9012 15.038 14.7254C15.2138 14.5496 15.3126 14.3111 15.3126 14.0625C15.3126 13.8139 15.2138 13.5754 15.038 13.3996C14.8622 13.2238 14.6237 13.125 14.3751 13.125H5.0001C4.75146 13.125 4.513 13.2238 4.33719 13.3996C4.16137 13.5754 4.0626 13.8139 4.0626 14.0625C4.0626 14.3111 4.16137 14.5496 4.33719 14.7254C4.513 14.9012 4.75146 15 5.0001 15ZM55.6251 9.375H46.2501C46.0015 9.375 45.763 9.47377 45.5872 9.64959C45.4114 9.8254 45.3126 10.0639 45.3126 10.3125C45.3126 10.5611 45.4114 10.7996 45.5872 10.9754C45.763 11.1512 46.0015 11.25 46.2501 11.25H55.6251C55.8737 11.25 56.1122 11.1512 56.288 10.9754C56.4638 10.7996 56.5626 10.5611 56.5626 10.3125C56.5626 10.0639 56.4638 9.8254 56.288 9.64959C56.1122 9.47377 55.8737 9.375 55.6251 9.375ZM57.5001 5.625H44.3751C43.6292 5.625 42.9138 5.92132 42.3864 6.44876C41.8589 6.97621 41.5626 7.69158 41.5626 8.4375V15.9375C41.5626 16.6834 41.8589 17.3988 42.3864 17.9262C42.9138 18.4537 43.6292 18.75 44.3751 18.75H46.852C47.0116 18.7501 47.1687 18.7909 47.3081 18.8687C47.4476 18.9465 47.5649 19.0586 47.6488 19.1944L48.5451 20.6419C48.7971 21.0497 49.1492 21.3863 49.568 21.6198C49.9867 21.8533 50.4582 21.9758 50.9376 21.9758C51.417 21.9758 51.8885 21.8533 52.3072 21.6198C52.726 21.3863 53.0781 21.0497 53.3301 20.6419L54.2263 19.1944C54.3103 19.0586 54.4276 18.9465 54.5671 18.8687C54.7065 18.7909 54.8635 18.7501 55.0232 18.75H57.5001C58.246 18.75 58.9614 18.4537 59.4888 17.9262C60.0163 17.3988 60.3126 16.6834 60.3126 15.9375V8.4375C60.3126 7.69158 60.0163 6.97621 59.4888 6.44876C58.9614 5.92132 58.246 5.625 57.5001 5.625ZM58.4376 15.9375C58.4376 16.1861 58.3388 16.4246 58.163 16.6004C57.9872 16.7762 57.7487 16.875 57.5001 16.875H55.0232C54.5435 16.8731 54.0714 16.9948 53.6524 17.2283C53.2334 17.4618 52.8815 17.7992 52.6307 18.2081L51.7345 19.6556C51.6505 19.7917 51.5331 19.904 51.3935 19.982C51.2538 20.0599 51.0966 20.1008 50.9367 20.1008C50.7768 20.1008 50.6195 20.0599 50.4799 19.982C50.3402 19.904 50.2228 19.7917 50.1388 19.6556L49.2501 18.2081C48.9988 17.7984 48.6461 17.4604 48.226 17.2269C47.8059 16.9933 47.3326 16.8721 46.852 16.875H44.3751C44.1265 16.875 43.888 16.7762 43.7122 16.6004C43.5364 16.4246 43.4376 16.1861 43.4376 15.9375V8.4375C43.4376 8.18886 43.5364 7.9504 43.7122 7.77459C43.888 7.59877 44.1265 7.5 44.3751 7.5H57.5001C57.7487 7.5 57.9872 7.59877 58.163 7.77459C58.3388 7.9504 58.4376 8.18886 58.4376 8.4375V15.9375ZM59.5626 35.0625L59.5757 35.04C60.0523 34.0524 60.3039 32.9715 60.3126 31.875C60.3186 30.1725 59.744 28.5189 58.6835 27.1871C57.623 25.8552 56.14 24.9248 54.4795 24.5495C52.8189 24.1741 51.08 24.3762 49.5497 25.1224C48.0195 25.8685 46.7894 27.1142 46.0626 28.6537C46.0495 28.6725 46.042 28.695 46.0307 28.7138C45.2215 30.4054 45.0859 32.3414 45.6513 34.1293C46.2168 35.9172 47.441 37.4232 49.0757 38.3419C49.0696 38.3735 49.0652 38.4054 49.0626 38.4375V41.8294C48.825 41.9589 48.5992 42.1089 48.3876 42.2775L43.4376 46.2375V45.9375C43.434 43.3662 42.471 40.8888 40.737 38.9901C39.0031 37.0914 36.623 35.9082 34.0626 35.6719C34.0626 35.655 34.0626 35.64 34.0626 35.625V32.8125C34.0581 32.7803 34.0518 32.7484 34.0438 32.7169C35.3719 31.9593 36.4354 30.8123 37.0906 29.4308C37.7457 28.0493 37.961 26.5 37.7072 24.9923C37.4534 23.4845 36.7429 22.091 35.6716 21.0001C34.6003 19.9092 33.2199 19.1736 31.717 18.8925C31.5772 18.8034 31.4158 18.7542 31.2501 18.75H30.7626C30.7118 18.7556 30.6616 18.7657 30.6126 18.78C30.5113 18.78 30.4157 18.75 30.3126 18.75C28.662 18.7448 27.0561 19.2861 25.7454 20.2894C24.4347 21.2926 23.4929 22.7015 23.0669 24.2961C22.6408 25.8908 22.7546 27.5817 23.3903 29.1049C24.0261 30.6282 25.1481 31.8982 26.5813 32.7169C26.5734 32.7484 26.5671 32.7803 26.5626 32.8125V35.625C26.5626 35.6419 26.5626 35.6569 26.5626 35.6719C24.0022 35.9082 21.6221 37.0914 19.8882 38.9901C18.1542 40.8888 17.1912 43.3662 17.1876 45.9375V46.2375L12.2376 42.2775C12.026 42.1089 11.8002 41.9589 11.5626 41.8294V38.4375C11.5581 38.4053 11.5518 38.3734 11.5438 38.3419C13.1784 37.4235 14.4027 35.918 14.9685 34.1305C15.5343 32.343 15.3992 30.4073 14.5907 28.7156C14.5776 28.695 14.5701 28.6725 14.557 28.6519C14.14 27.76 13.5509 26.9592 12.8236 26.2956C12.0962 25.632 11.245 25.1186 10.3187 24.7849C9.39241 24.4512 8.40932 24.3038 7.42588 24.3511C6.44245 24.3983 5.47804 24.6394 4.58804 25.0605C3.69804 25.4815 2.89998 26.0742 2.23969 26.8046C1.57939 27.5349 1.06987 28.3885 0.740373 29.3163C0.410879 30.2441 0.267905 31.2278 0.319663 32.211C0.371421 33.1942 0.616889 34.1575 1.04197 35.0456L1.0626 35.0625C1.71327 36.4363 2.76602 37.5799 4.08135 38.3419C4.07335 38.3734 4.0671 38.4053 4.0626 38.4375V41.3456C3.00413 41.5617 2.05278 42.1367 1.36947 42.9734C0.686149 43.8102 0.31281 44.8572 0.312598 45.9375V59.0625C0.312598 59.3111 0.41137 59.5496 0.587186 59.7254C0.763001 59.9012 1.00146 60 1.2501 60H59.3751C59.6237 60 59.8622 59.9012 60.038 59.7254C60.2138 59.5496 60.3126 59.3111 60.3126 59.0625V45.9375C60.3124 44.8572 59.939 43.8102 59.2557 42.9734C58.5724 42.1367 57.6211 41.5617 56.5626 41.3456V38.4375C56.5581 38.4053 56.5518 38.3734 56.5438 38.3419C57.8592 37.5799 58.9119 36.4363 59.5626 35.0625ZM30.3126 20.625C31.4462 20.6281 32.5525 20.9737 33.4863 21.6164C34.4202 22.2592 35.138 23.1691 35.5457 24.2269L30.8282 22.8863C29.8269 22.604 28.7603 22.6607 27.7945 23.0475L25.1095 24.1313C25.5304 23.0961 26.2501 22.2098 27.1768 21.5853C28.1035 20.9608 29.1951 20.6265 30.3126 20.625ZM24.6876 26.25C24.8077 26.2502 24.9268 26.2273 25.0382 26.1825L28.4957 24.7875C29.0741 24.556 29.7127 24.5217 30.3126 24.69L35.677 26.2144C35.7607 26.2324 35.8465 26.2387 35.932 26.2331V26.25C35.932 27.7418 35.3393 29.1726 34.2845 30.2275C33.2296 31.2824 31.7988 31.875 30.307 31.875C28.8151 31.875 27.3844 31.2824 26.3295 30.2275C25.2746 29.1726 24.682 27.7418 24.682 26.25H24.6876ZM32.1876 33.4837V35.625C32.1876 36.1223 31.9901 36.5992 31.6384 36.9508C31.2868 37.3025 30.8099 37.5 30.3126 37.5C29.8153 37.5 29.3384 37.3025 28.9868 36.9508C28.6351 36.5992 28.4376 36.1223 28.4376 35.625V33.4837C29.6624 33.8389 30.9628 33.8389 32.1876 33.4837ZM19.0626 45.9375C19.0703 43.7731 19.9095 41.6945 21.4067 40.1314C22.9038 38.5683 24.9443 37.6404 27.1063 37.5394C27.4347 38.0982 27.9034 38.5615 28.466 38.8834C29.0285 39.2053 29.6654 39.3746 30.3135 39.3746C30.9617 39.3746 31.5986 39.2053 32.1611 38.8834C32.7237 38.5615 33.1923 38.0982 33.5207 37.5394C35.6824 37.6408 37.7225 38.569 39.2192 40.132C40.7159 41.6951 41.5549 43.7734 41.5626 45.9375V46.875H37.8126C37.153 46.8705 36.504 47.0414 35.932 47.3701C35.3601 47.6988 34.8857 48.1735 34.5575 48.7457C34.2292 49.3179 34.0589 49.967 34.0638 50.6267C34.0688 51.2863 34.2489 51.9328 34.5857 52.5H26.0413C26.3745 51.9321 26.5517 51.2862 26.5548 50.6277C26.5579 49.9693 26.3869 49.3217 26.0591 48.7506C25.7313 48.1796 25.2584 47.7053 24.6883 47.3759C24.1181 47.0465 23.471 46.8737 22.8126 46.875H19.0626V45.9375ZM39.6876 48.75V52.5H37.8126C37.3153 52.5 36.8384 52.3025 36.4868 51.9508C36.1351 51.5992 35.9376 51.1223 35.9376 50.625C35.9376 50.1277 36.1351 49.6508 36.4868 49.2992C36.8384 48.9475 37.3153 48.75 37.8126 48.75H39.6876ZM24.6876 50.625C24.6876 51.1223 24.4901 51.5992 24.1384 51.9508C23.7868 52.3025 23.3099 52.5 22.8126 52.5H20.9376V48.75H22.8126C23.3099 48.75 23.7868 48.9475 24.1384 49.2992C24.4901 49.6508 24.6876 50.1277 24.6876 50.625ZM2.1876 31.875C2.18355 30.692 2.55373 29.538 3.24519 28.578C3.93664 27.6181 4.91395 26.9014 6.03734 26.5305C7.16073 26.1596 8.37264 26.1534 9.49975 26.5129C10.6269 26.8723 11.6114 27.579 12.3126 28.5319L4.8126 30.0188C4.60084 30.062 4.41052 30.177 4.27385 30.3445C4.13718 30.5119 4.06255 30.7214 4.0626 30.9375V33.75H2.5326C2.31049 33.1495 2.19378 32.5152 2.1876 31.875ZM3.6501 35.625H5.0001C5.24874 35.625 5.4872 35.5262 5.66301 35.3504C5.83883 35.1746 5.9376 34.9361 5.9376 34.6875V31.7081L13.177 30.2719C13.342 30.7906 13.4299 31.3307 13.4376 31.875C13.4417 33.0125 13.0996 34.1244 12.4567 35.0628C11.8138 36.0012 10.9006 36.7218 9.83839 37.1288C8.77617 37.5357 7.61525 37.6099 6.5099 37.3413C5.40455 37.0727 4.4071 36.4741 3.6501 35.625ZM9.6876 39.1087V41.2819C9.56197 41.2725 9.43635 41.25 9.3126 41.25H5.9376V39.1087C6.54865 39.2773 7.17879 39.3668 7.8126 39.375C8.44641 39.3668 9.07655 39.2773 9.6876 39.1087ZM9.6876 53.4375V58.125H2.1876V45.9375C2.1876 45.1916 2.48391 44.4762 3.01136 43.9488C3.53881 43.4213 4.25418 43.125 5.0001 43.125H9.3126C9.95128 43.1252 10.5709 43.3427 11.0695 43.7419L17.0695 48.5475C17.2369 48.6801 17.4446 48.7515 17.6582 48.75H19.0626V52.5H16.5632L9.3126 47.0625C9.21411 46.9886 9.10203 46.9349 8.98277 46.9043C8.86351 46.8738 8.73939 46.867 8.61752 46.8844C8.49564 46.9018 8.37838 46.9431 8.27245 47.0058C8.16651 47.0685 8.07397 47.1515 8.0001 47.25C7.92623 47.3485 7.87248 47.4606 7.84193 47.5798C7.81137 47.6991 7.80461 47.8232 7.82202 47.9451C7.83943 48.067 7.88068 48.1842 7.9434 48.2901C8.00613 48.3961 8.08911 48.4886 8.1876 48.5625L13.4376 52.5H10.6251C10.3765 52.5 10.138 52.5988 9.96219 52.7746C9.78637 52.9504 9.6876 53.1889 9.6876 53.4375ZM49.0626 58.125H11.5626V54.375H49.0626V58.125ZM58.4376 45.9375V58.125H50.9376V53.4375C50.9376 53.1889 50.8388 52.9504 50.663 52.7746C50.4872 52.5988 50.2487 52.5 50.0001 52.5H47.1876L52.4376 48.5625C52.6365 48.4133 52.768 48.1912 52.8032 47.9451C52.8383 47.6989 52.7743 47.4489 52.6251 47.25C52.4759 47.0511 52.2538 46.9196 52.0077 46.8844C51.7615 46.8493 51.5115 46.9133 51.3126 47.0625L44.062 52.5H41.5626V48.75H42.967C43.1801 48.7506 43.3871 48.6785 43.5538 48.5456L49.5538 43.7419C50.0529 43.3423 50.6733 43.1248 51.3126 43.125H55.6251C56.371 43.125 57.0864 43.4213 57.6138 43.9488C58.1413 44.4762 58.4376 45.1916 58.4376 45.9375ZM50.9376 41.2819V39.1087C52.1624 39.4639 53.4628 39.4639 54.6876 39.1087V41.25H51.3126C51.1889 41.25 51.0632 41.2725 50.9376 41.2819ZM52.8126 37.5C51.3208 37.5 49.89 36.9074 48.8351 35.8525C47.7802 34.7976 47.1876 33.3668 47.1876 31.875C47.1953 31.3307 47.2831 30.7906 47.4482 30.2719L54.6876 31.7081V34.6875C54.6876 34.9361 54.7864 35.1746 54.9622 35.3504C55.138 35.5262 55.3765 35.625 55.6251 35.625H56.9751C56.4522 36.2128 55.8112 36.6836 55.0939 37.0067C54.3767 37.3298 53.5993 37.4979 52.8126 37.5ZM56.5626 33.75V30.9375C56.5626 30.7214 56.488 30.5119 56.3513 30.3445C56.2147 30.177 56.0244 30.062 55.8126 30.0188L48.3126 28.5319C49.1042 27.4342 50.2669 26.6608 51.5852 26.3549C52.9035 26.0491 54.288 26.2316 55.4821 26.8687C56.6761 27.5058 57.5986 28.5541 58.0786 29.8195C58.5586 31.0848 58.5636 32.4813 58.0926 33.75H56.5626ZM3.1251 18.75H5.60197C5.76165 18.7501 5.91866 18.7909 6.05812 18.8687C6.19758 18.9465 6.31486 19.0586 6.39885 19.1944L7.2951 20.6419C7.54713 21.0497 7.89924 21.3863 8.31797 21.6198C8.73671 21.8533 9.20817 21.9758 9.6876 21.9758C10.167 21.9758 10.6385 21.8533 11.0572 21.6198C11.476 21.3863 11.8281 21.0497 12.0801 20.6419L12.9763 19.1944C13.0603 19.0586 13.1776 18.9465 13.3171 18.8687C13.4565 18.7909 13.6135 18.7501 13.7732 18.75H16.2501C16.996 18.75 17.7114 18.4537 18.2388 17.9262C18.7663 17.3988 19.0626 16.6834 19.0626 15.9375V8.4375C19.0626 7.69158 18.7663 6.97621 18.2388 6.44876C17.7114 5.92132 16.996 5.625 16.2501 5.625H3.1251C2.37918 5.625 1.66381 5.92132 1.13636 6.44876C0.608914 6.97621 0.312598 7.69158 0.312598 8.4375V15.9375C0.312598 16.6834 0.608914 17.3988 1.13636 17.9262C1.66381 18.4537 2.37918 18.75 3.1251 18.75ZM2.1876 8.4375C2.1876 8.18886 2.28637 7.9504 2.46219 7.77459C2.638 7.59877 2.87646 7.5 3.1251 7.5H16.2501C16.4987 7.5 16.7372 7.59877 16.913 7.77459C17.0888 7.9504 17.1876 8.18886 17.1876 8.4375V15.9375C17.1876 16.1861 17.0888 16.4246 16.913 16.6004C16.7372 16.7762 16.4987 16.875 16.2501 16.875H13.7732C13.2926 16.8721 12.8193 16.9933 12.3992 17.2269C11.9791 17.4604 11.6264 17.7984 11.3751 18.2081L10.4788 19.6556C10.3949 19.7917 10.2775 19.904 10.1378 19.982C9.9982 20.0599 9.84094 20.1008 9.68104 20.1008C9.52113 20.1008 9.36388 20.0599 9.22423 19.982C9.08459 19.904 8.9672 19.7917 8.88322 19.6556L8.0001 18.2081C7.74881 17.7984 7.39607 17.4604 6.97597 17.2269C6.55586 16.9933 6.08262 16.8721 5.60197 16.875H3.1251C2.87646 16.875 2.638 16.7762 2.46219 16.6004C2.28637 16.4246 2.1876 16.1861 2.1876 15.9375V8.4375ZM55.6251 13.125H46.2501C46.0015 13.125 45.763 13.2238 45.5872 13.3996C45.4114 13.5754 45.3126 13.8139 45.3126 14.0625C45.3126 14.3111 45.4114 14.5496 45.5872 14.7254C45.763 14.9012 46.0015 15 46.2501 15H55.6251C55.8737 15 56.1122 14.9012 56.288 14.7254C56.4638 14.5496 56.5626 14.3111 56.5626 14.0625C56.5626 13.8139 56.4638 13.5754 56.288 13.3996C56.1122 13.2238 55.8737 13.125 55.6251 13.125Z" fill="white"/>
</g>
<defs>
<clipPath id="clip0_660_160">
<rect width="60" height="60" fill="white" transform="translate(0.312622)"/>
</clipPath>
</defs>
</svg>
