<svg width="60" height="60" viewBox="0 0 60 60" fill="none" xmlns="http://www.w3.org/2000/svg">
<g id="online order" clip-path="url(#clip0_665_282)">
<path id="Vector" d="M55.6055 0.0883789H4.39453C3.22943 0.0896816 2.11242 0.553094 1.28857 1.37695C0.464715 2.2008 0.00130273 3.31781 0 4.48291L0 37.8502C0.00130273 39.0153 0.464715 40.1323 1.28857 40.9561C2.11242 41.78 3.22943 42.2434 4.39453 42.2447H24.8086V51.492C20.6905 51.6379 16.5804 51.9561 12.4889 52.4459C12.3585 52.4615 12.2332 52.5062 12.1223 52.5766C12.0114 52.647 11.9177 52.7414 11.8481 52.8528C11.7785 52.9642 11.7348 53.0898 11.7201 53.2203C11.7054 53.3508 11.7202 53.483 11.7633 53.6071L13.7488 59.3213C13.816 59.5154 13.9491 59.6798 14.125 59.7858C14.3009 59.8919 14.5085 59.9329 14.7115 59.9017C19.7668 59.1325 24.8729 58.7453 29.9864 58.7433H30.0002C35.1182 58.7446 40.2288 59.1319 45.2885 59.9017C45.4915 59.9328 45.699 59.8917 45.8749 59.7857C46.0508 59.6797 46.1839 59.5153 46.2512 59.3213L48.2367 53.6071C48.2798 53.483 48.2946 53.3509 48.2799 53.2203C48.2652 53.0898 48.2214 52.9642 48.1518 52.8529C48.0822 52.7415 47.9885 52.6471 47.8776 52.5767C47.7668 52.5063 47.6415 52.4616 47.5111 52.446C43.4196 51.9567 39.3095 51.6389 35.1914 51.4934V42.2446H55.6055C56.7706 42.2433 57.8876 41.7799 58.7114 40.956C59.5353 40.1322 59.9987 39.0152 60 37.8501V4.48291C59.9987 3.31781 59.5353 2.2008 58.7114 1.37695C57.8876 0.553094 56.7706 0.0896816 55.6055 0.0883789ZM46.2164 54.0653L44.8297 58.0563C39.9186 57.3447 34.9627 56.9868 30.0002 56.9855H29.9862C25.0282 56.9874 20.0768 57.3453 15.1702 58.0563L13.7835 54.0653C19.1683 53.4622 24.5826 53.1594 30.0011 53.1581C30.0819 53.1581 30.163 53.1581 30.2436 53.1584C35.5805 53.1686 40.9128 53.4714 46.2165 54.0653H46.2164ZM26.5664 51.4406V42.2446H33.4336V51.4408C32.3698 51.4158 31.3075 51.4023 30.2466 51.4005C29.0221 51.3979 27.7954 51.4113 26.5664 51.4406ZM58.2422 37.8502C58.2414 38.5492 57.9633 39.2194 57.469 39.7137C56.9747 40.208 56.3045 40.4861 55.6055 40.4869H4.39453C3.69548 40.4861 3.02529 40.208 2.53098 39.7137C2.03667 39.2194 1.75862 38.5492 1.75781 37.8502V4.48291C1.75862 3.78386 2.03667 3.11367 2.53098 2.61936C3.02529 2.12505 3.69548 1.847 4.39453 1.84619H55.6055C56.3045 1.847 56.9747 2.12505 57.469 2.61936C57.9633 3.11367 58.2414 3.78386 58.2422 4.48291V37.8502ZM33.2361 26.769H24.7646C24.3558 26.7698 23.964 26.9328 23.6751 27.2221C23.3862 27.5114 23.224 27.9036 23.2239 28.3124V30.9702C23.224 31.379 23.3862 31.7711 23.6751 32.0605C23.9639 32.3498 24.3557 32.5128 24.7645 32.5136H33.2361C33.645 32.5128 34.0368 32.3499 34.3257 32.0605C34.6145 31.7712 34.7768 31.3791 34.7769 30.9702V28.3124C34.7768 27.9036 34.6145 27.5114 34.3257 27.2221C34.0368 26.9328 33.645 26.7698 33.2361 26.769ZM33.0191 30.7558H24.9817V28.5269H33.0191V30.7558ZM55.15 4.0751H4.85004C4.61694 4.0751 4.39339 4.1677 4.22856 4.33252C4.06373 4.49735 3.97113 4.7209 3.97113 4.954V37.3791C3.97113 37.6122 4.06373 37.8357 4.22856 38.0006C4.39339 38.1654 4.61694 38.258 4.85004 38.258H55.15C55.3831 38.258 55.6066 38.1654 55.7714 38.0006C55.9363 37.8357 56.0289 37.6122 56.0289 37.3791V4.954C56.0289 4.7209 55.9363 4.49735 55.7714 4.33252C55.6066 4.1677 55.3831 4.0751 55.15 4.0751ZM54.2711 36.5002H5.72895V5.83291H54.2711V36.5002ZM10.9983 32.5135H19.4698C19.8786 32.5127 20.2705 32.3497 20.5593 32.0604C20.8482 31.7711 21.0105 31.379 21.0105 30.9701V28.3125C21.0105 27.9037 20.8482 27.5116 20.5594 27.2223C20.2705 26.9329 19.8787 26.77 19.4699 26.7692H10.9983C10.5894 26.7699 10.1976 26.9329 9.90869 27.2222C9.61981 27.5115 9.45751 27.9037 9.45738 28.3125V30.9703C9.45751 31.3792 9.61981 31.7713 9.90869 32.0606C10.1976 32.35 10.5894 32.5129 10.9983 32.5137V32.5135ZM11.2152 28.5269H19.2527V30.7558H11.2152V28.5269ZM33.898 19.5508H43.2368C43.4699 19.5508 43.6935 19.4582 43.8583 19.2933C44.0231 19.1285 44.1157 18.905 44.1157 18.6719C44.1157 18.4388 44.0231 18.2152 43.8583 18.0504C43.6935 17.8855 43.4699 17.7929 43.2368 17.7929H33.898C33.6649 17.7929 33.4414 17.8855 33.2765 18.0504C33.1117 18.2152 33.0191 18.4388 33.0191 18.6719C33.0191 18.905 33.1117 19.1285 33.2765 19.2933C33.4414 19.4582 33.6649 19.5508 33.898 19.5508ZM12.102 24.1245H24.6601C25.1852 24.1201 25.6918 23.93 26.0903 23.588C26.4887 23.2461 26.7534 22.7741 26.8373 22.2558C26.9213 21.7375 26.8193 21.2061 26.5492 20.7558C26.2791 20.3055 25.8584 19.9652 25.3616 19.7952C25.333 18.3463 24.854 16.9423 23.9912 15.7779C23.1285 14.6136 21.9246 13.7467 20.5468 13.2975C20.6961 12.9744 20.7736 12.6228 20.7738 12.2669C20.7793 11.947 20.721 11.6293 20.6024 11.3322C20.4838 11.0351 20.3072 10.7646 20.0829 10.5365C19.8587 10.3083 19.5912 10.1271 19.2962 10.0035C19.0012 9.87978 18.6845 9.81609 18.3646 9.81609C18.0447 9.81609 17.728 9.87978 17.433 10.0035C17.1379 10.1271 16.8705 10.3083 16.6462 10.5365C16.422 10.7646 16.2454 11.0351 16.1268 11.3322C16.0081 11.6293 15.9498 11.947 15.9553 12.2669C15.9556 12.6297 16.0362 12.988 16.1913 13.316C14.8285 13.7727 13.64 14.6391 12.7881 15.7967C11.9362 16.9543 11.4624 18.3467 11.4316 19.7836C10.9298 19.9474 10.5025 20.2843 10.2261 20.734C9.94976 21.1837 9.84224 21.7171 9.9228 22.2388C10.0034 22.7605 10.2668 23.2366 10.6659 23.582C11.0651 23.9274 11.5741 24.1197 12.102 24.1245ZM18.3647 11.5774C18.5027 11.5696 18.6399 11.6034 18.7585 11.6745C18.8771 11.7455 18.9717 11.8505 19.03 11.9759C19.0882 12.1012 19.1075 12.2412 19.0854 12.3777C19.0632 12.5141 19.0006 12.6408 18.9056 12.7413C18.8107 12.8417 18.6877 12.9114 18.5527 12.9412C18.4177 12.9711 18.2769 12.9597 18.1484 12.9086C18.02 12.8575 17.9098 12.769 17.8322 12.6546C17.7546 12.5402 17.7131 12.4051 17.7131 12.2669C17.7084 12.0891 17.7744 11.9168 17.8965 11.7875C18.0186 11.6583 18.187 11.5828 18.3647 11.5774ZM18.3964 14.7142C19.7351 14.7158 21.0219 15.232 21.9907 16.1559C22.9594 17.0798 23.5358 18.3408 23.6007 19.6779H13.1921C13.2571 18.3408 13.8335 17.0798 14.8022 16.1559C15.771 15.232 17.0578 14.7158 18.3964 14.7142ZM12.102 21.4357H24.6601C24.7804 21.4404 24.8943 21.4915 24.9777 21.5783C25.0612 21.665 25.1078 21.7808 25.1078 21.9012C25.1078 22.0216 25.0612 22.1373 24.9777 22.2241C24.8943 22.3109 24.7804 22.362 24.6601 22.3667H12.102C11.9816 22.362 11.8678 22.3109 11.7843 22.2241C11.7009 22.1373 11.6542 22.0216 11.6542 21.9012C11.6542 21.7808 11.7009 21.665 11.7843 21.5783C11.8678 21.4915 11.9816 21.4404 12.102 21.4357ZM33.8979 11.5774H49.4211C49.6542 11.5774 49.8778 11.4848 50.0426 11.32C50.2074 11.1552 50.3 10.9316 50.3 10.6985C50.3 10.4654 50.2074 10.2419 50.0426 10.0771C49.8778 9.91223 49.6542 9.81963 49.4211 9.81963H33.898C33.6649 9.81963 33.4414 9.91223 33.2765 10.0771C33.1117 10.2419 33.0191 10.4654 33.0191 10.6985C33.0191 10.9316 33.1117 11.1552 33.2765 11.32C33.4414 11.4848 33.6649 11.5774 33.898 11.5774H33.8979ZM33.8979 15.5642H49.4211C49.6542 15.5642 49.8778 15.4716 50.0426 15.3067C50.2074 15.1419 50.3 14.9184 50.3 14.6853C50.3 14.4522 50.2074 14.2286 50.0426 14.0638C49.8778 13.8989 49.6542 13.8063 49.4211 13.8063H33.898C33.6649 13.8063 33.4414 13.8989 33.2765 14.0638C33.1117 14.2286 33.0191 14.4522 33.0191 14.6853C33.0191 14.9184 33.1117 15.1419 33.2765 15.3067C33.4414 15.4716 33.6649 15.5642 33.898 15.5642H33.8979ZM49.7402 25.3078L40.7168 21.7922C40.5578 21.7303 40.3842 21.716 40.2172 21.7511C40.0502 21.7862 39.897 21.8691 39.7764 21.9898C39.6557 22.1104 39.5728 22.2636 39.5377 22.4306C39.5027 22.5976 39.517 22.7712 39.5789 22.9302L43.0945 31.9537C43.1587 32.1185 43.2712 32.2602 43.4173 32.3601C43.5633 32.46 43.7361 32.5135 43.9131 32.5136C43.9356 32.5136 43.9583 32.5128 43.9811 32.5109C44.1691 32.4964 44.3474 32.4218 44.4898 32.2981C44.6322 32.1745 44.731 32.0083 44.7716 31.8242L45.422 28.8785L48.5563 32.0127C48.6379 32.0943 48.7348 32.1591 48.8414 32.2032C48.9481 32.2474 49.0624 32.2702 49.1778 32.2702C49.2932 32.2702 49.4075 32.2474 49.5141 32.2032C49.6208 32.1591 49.7177 32.0943 49.7993 32.0127C49.8809 31.9311 49.9457 31.8342 49.9898 31.7276C50.034 31.6209 50.0567 31.5066 50.0567 31.3912C50.0567 31.2758 50.034 31.1615 49.9898 31.0549C49.9457 30.9482 49.8809 30.8513 49.7993 30.7697L46.665 27.6354L49.6107 26.985C49.7949 26.9444 49.9611 26.8455 50.0847 26.7032C50.2084 26.5608 50.283 26.3825 50.2975 26.1945C50.312 26.0064 50.2657 25.8187 50.1653 25.6591C50.065 25.4994 49.9159 25.3763 49.7402 25.3078ZM44.7199 26.2647C44.7155 26.2658 44.7112 26.2676 44.7068 26.2687C44.6741 26.2764 44.6419 26.2859 44.6104 26.2974C44.6045 26.2995 44.5986 26.3012 44.5928 26.3036C44.5574 26.3172 44.5229 26.3331 44.4896 26.3512C44.4844 26.354 44.4796 26.3572 44.4744 26.3601C44.4467 26.3759 44.4199 26.3933 44.3941 26.4121L44.3725 26.428C44.3126 26.473 44.2594 26.5262 44.2144 26.5861L44.1989 26.6072C44.1798 26.6334 44.1622 26.6605 44.1462 26.6887C44.1435 26.6933 44.1405 26.6979 44.138 26.7027C44.1196 26.7363 44.1035 26.7711 44.0898 26.8068C44.0878 26.8119 44.0863 26.8173 44.0843 26.8226C44.0725 26.855 44.0627 26.8881 44.0548 26.9216C44.0538 26.9256 44.0522 26.9294 44.0513 26.9333L43.68 28.6146L41.943 24.1565L46.4012 25.8934L44.7199 26.2647Z" fill="white"/>
</g>
<defs>
<clipPath id="clip0_665_282">
<rect width="60" height="60" fill="white"/>
</clipPath>
</defs>
</svg>
