<svg width="60" height="60" viewBox="0 0 60 60" fill="none" xmlns="http://www.w3.org/2000/svg">
<g id="Working Schedule">
<path id="Vector" d="M32.8875 45.9375H5.625C5.00943 45.9375 4.39988 45.8163 3.83117 45.5807C3.26246 45.3452 2.74571 44.9999 2.31044 44.5646C1.43136 43.6855 0.9375 42.4933 0.9375 41.25V10.425C0.949851 9.18999 1.44916 8.00971 2.3269 7.14075C3.20464 6.27178 4.38988 5.78436 5.625 5.78442H42.5344C43.7695 5.78436 44.9547 6.27178 45.8325 7.14075C46.7102 8.00971 47.2095 9.18999 47.2219 10.425V30.3375C47.2219 30.5862 47.1231 30.8246 46.9473 31.0005C46.7715 31.1763 46.533 31.275 46.2844 31.275C46.0357 31.275 45.7973 31.1763 45.6215 31.0005C45.4456 30.8246 45.3469 30.5862 45.3469 30.3375V10.425C45.3346 9.68728 45.0328 8.98389 44.5067 8.46654C43.9806 7.94919 43.2722 7.65932 42.5344 7.65942H5.625C4.88713 7.65932 4.17877 7.94919 3.65265 8.46654C3.12653 8.98389 2.8248 9.68728 2.8125 10.425V41.25C2.8125 41.996 3.10882 42.7113 3.63626 43.2388C4.16371 43.7662 4.87908 44.0625 5.625 44.0625H32.8875C33.1361 44.0625 33.3746 44.1613 33.5504 44.3371C33.7262 44.513 33.825 44.7514 33.825 45C33.825 45.2487 33.7262 45.4871 33.5504 45.663C33.3746 45.8388 33.1361 45.9375 32.8875 45.9375Z" fill="white"/>
<path id="Vector_2" d="M46.2469 17.7187H1.875C1.62636 17.7187 1.3879 17.62 1.21209 17.4442C1.03627 17.2683 0.9375 17.0299 0.9375 16.7812C0.9375 16.5326 1.03627 16.2942 1.21209 16.1183C1.3879 15.9425 1.62636 15.8438 1.875 15.8438H46.2469C46.4955 15.8438 46.734 15.9425 46.9098 16.1183C47.0856 16.2942 47.1844 16.5326 47.1844 16.7812C47.1844 17.0299 47.0856 17.2683 46.9098 17.4442C46.734 17.62 46.4955 17.7187 46.2469 17.7187ZM13.5844 29.0625H8.30625C8.05761 29.0625 7.81915 28.9637 7.64334 28.7879C7.46752 28.6121 7.36875 28.3736 7.36875 28.125V22.8844C7.36875 22.6357 7.46752 22.3973 7.64334 22.2215C7.81915 22.0456 8.05761 21.9469 8.30625 21.9469H13.5844C13.833 21.9469 14.0715 22.0456 14.2473 22.2215C14.4231 22.3973 14.5219 22.6357 14.5219 22.8844V28.125C14.5219 28.3736 14.4231 28.6121 14.2473 28.7879C14.0715 28.9637 13.833 29.0625 13.5844 29.0625ZM9.24375 27.1875H12.6469V23.8219H9.24375V27.1875ZM25.4625 29.0625H20.1844C19.9357 29.0625 19.6973 28.9637 19.5215 28.7879C19.3456 28.6121 19.2469 28.3736 19.2469 28.125V22.8844C19.2469 22.6357 19.3456 22.3973 19.5215 22.2215C19.6973 22.0456 19.9357 21.9469 20.1844 21.9469H25.4625C25.7111 21.9469 25.9496 22.0456 26.1254 22.2215C26.3012 22.3973 26.4 22.6357 26.4 22.8844V28.125C26.4 28.3736 26.3012 28.6121 26.1254 28.7879C25.9496 28.9637 25.7111 29.0625 25.4625 29.0625ZM21.1219 27.1875H24.525V23.8219H21.1219V27.1875ZM37.3406 29.0625H32.0625C31.8139 29.0625 31.5754 28.9637 31.3996 28.7879C31.2238 28.6121 31.125 28.3736 31.125 28.125V22.8844C31.125 22.6357 31.2238 22.3973 31.3996 22.2215C31.5754 22.0456 31.8139 21.9469 32.0625 21.9469H37.3406C37.5893 21.9469 37.8277 22.0456 38.0035 22.2215C38.1794 22.3973 38.2781 22.6357 38.2781 22.8844V28.125C38.2781 28.3736 38.1794 28.6121 38.0035 28.7879C37.8277 28.9637 37.5893 29.0625 37.3406 29.0625ZM33 27.1875H36.4031V23.8219H33V27.1875ZM13.5844 39.1594H8.30625C8.05761 39.1594 7.81915 39.0606 7.64334 38.8848C7.46752 38.709 7.36875 38.4705 7.36875 38.2219V32.9437C7.36875 32.6951 7.46752 32.4567 7.64334 32.2808C7.81915 32.105 8.05761 32.0062 8.30625 32.0062H13.5844C13.833 32.0062 14.0715 32.105 14.2473 32.2808C14.4231 32.4567 14.5219 32.6951 14.5219 32.9437V38.2219C14.5219 38.4705 14.4231 38.709 14.2473 38.8848C14.0715 39.0606 13.833 39.1594 13.5844 39.1594ZM9.24375 37.2844H12.6469V33.8812H9.24375V37.2844ZM25.4625 39.1594H20.1844C19.9357 39.1594 19.6973 39.0606 19.5215 38.8848C19.3456 38.709 19.2469 38.4705 19.2469 38.2219V32.9437C19.2469 32.6951 19.3456 32.4567 19.5215 32.2808C19.6973 32.105 19.9357 32.0062 20.1844 32.0062H25.4625C25.7111 32.0062 25.9496 32.105 26.1254 32.2808C26.3012 32.4567 26.4 32.6951 26.4 32.9437V38.2219C26.4 38.4705 26.3012 38.709 26.1254 38.8848C25.9496 39.0606 25.7111 39.1594 25.4625 39.1594ZM21.1219 37.2844H24.525V33.8812H21.1219V37.2844ZM45.4219 56.6437C42.7236 56.6437 40.086 55.8435 37.8426 54.3442C35.5992 52.845 33.8508 50.714 32.8187 48.221C31.7865 45.7279 31.517 42.9848 32.044 40.3385C32.5711 37.6922 33.8712 35.2617 35.7798 33.3544C37.6884 31.4471 40.1198 30.1487 42.7665 29.6235C45.4131 29.0982 48.1561 29.3697 50.6484 30.4035C53.1407 31.4374 55.2705 33.1872 56.7682 35.4316C58.2659 37.676 59.0644 40.3142 59.0625 43.0125C59.0575 46.6278 57.6185 50.0935 55.0612 52.6491C52.5039 55.2046 49.0372 56.6413 45.4219 56.6437ZM45.4219 31.2469C43.0949 31.2469 40.8201 31.9369 38.8852 33.2297C36.9504 34.5226 35.4424 36.3601 34.5519 38.51C33.6613 40.6599 33.4283 43.0256 33.8823 45.3079C34.3363 47.5902 35.4569 49.6866 37.1023 51.332C38.7478 52.9775 40.8442 54.0981 43.1265 54.5521C45.4088 55.006 47.7745 54.773 49.9244 53.8825C52.0743 52.992 53.9118 51.484 55.2046 49.5491C56.4975 47.6143 57.1875 45.3395 57.1875 43.0125C57.185 39.8928 55.9446 36.9016 53.7387 34.6957C51.5327 32.4897 48.5416 31.2494 45.4219 31.2469Z" fill="white"/>
<path id="Vector_3" d="M45.4219 35.2874C45.1733 35.2874 44.9348 35.1887 44.759 35.0129C44.5832 34.837 44.4844 34.5986 44.4844 34.3499V33.75C44.4844 33.5013 44.5832 33.2629 44.759 33.087C44.9348 32.9112 45.1733 32.8125 45.4219 32.8125C45.6706 32.8125 45.909 32.9112 46.0848 33.087C46.2607 33.2629 46.3594 33.5013 46.3594 33.75V34.3593C46.357 34.6063 46.2571 34.8424 46.0815 35.0162C45.906 35.19 45.669 35.2875 45.4219 35.2874ZM45.4219 53.2125C45.1733 53.2125 44.9348 53.1137 44.759 52.9379C44.5832 52.7621 44.4844 52.5236 44.4844 52.275V51.6656C44.4844 51.4169 44.5832 51.1785 44.759 51.0027C44.9348 50.8268 45.1733 50.7281 45.4219 50.7281C45.6706 50.7281 45.909 50.8268 46.0848 51.0027C46.2607 51.1785 46.3594 51.4169 46.3594 51.6656V52.275C46.3594 52.5236 46.2607 52.7621 46.0848 52.9379C45.909 53.1137 45.6706 53.2125 45.4219 53.2125ZM54.6938 43.95H54.0844C53.8358 43.95 53.5973 43.8512 53.4215 43.6754C53.2457 43.4996 53.1469 43.2611 53.1469 43.0125C53.1469 42.7638 53.2457 42.5254 53.4215 42.3495C53.5973 42.1737 53.8358 42.075 54.0844 42.075H54.6938C54.9424 42.075 55.1809 42.1737 55.3567 42.3495C55.5325 42.5254 55.6313 42.7638 55.6313 43.0125C55.6313 43.2611 55.5325 43.4996 55.3567 43.6754C55.1809 43.8512 54.9424 43.95 54.6938 43.95ZM36.7688 43.95H36.1594C35.9108 43.95 35.6723 43.8512 35.4965 43.6754C35.3207 43.4996 35.2219 43.2611 35.2219 43.0125C35.2219 42.7638 35.3207 42.5254 35.4965 42.3495C35.6723 42.1737 35.9108 42.075 36.1594 42.075H36.7688C37.0174 42.075 37.2559 42.1737 37.4317 42.3495C37.6075 42.5254 37.7063 42.7638 37.7063 43.0125C37.7063 43.2611 37.6075 43.4996 37.4317 43.6754C37.2559 43.8512 37.0174 43.95 36.7688 43.95ZM51.5626 37.8281C51.4385 37.8276 51.3158 37.8024 51.2016 37.7542C51.0873 37.7059 50.9838 37.6354 50.8969 37.5468C50.7223 37.3712 50.6243 37.1336 50.6243 36.8859C50.6243 36.6382 50.7223 36.4006 50.8969 36.2249L51.3282 35.7937C51.4153 35.7058 51.519 35.6361 51.6333 35.5885C51.7475 35.5409 51.87 35.5164 51.9938 35.5164C52.1176 35.5164 52.2401 35.5409 52.3543 35.5885C52.4686 35.6361 52.5723 35.7058 52.6594 35.7937C52.834 35.9694 52.932 36.207 52.932 36.4546C52.932 36.7023 52.834 36.9399 52.6594 37.1156L52.2282 37.5468C52.1413 37.6354 52.0378 37.7059 51.9236 37.7542C51.8093 37.8024 51.6866 37.8276 51.5626 37.8281ZM38.8688 50.4937C38.6229 50.4927 38.3872 50.395 38.2125 50.2218C38.0379 50.0462 37.9399 49.8086 37.9399 49.5609C37.9399 49.3132 38.0379 49.0756 38.2125 48.9L38.6438 48.4687C38.8231 48.3151 39.0538 48.2349 39.2898 48.244C39.5257 48.2531 39.7496 48.3509 39.9165 48.5179C40.0835 48.6848 40.1813 48.9086 40.1904 49.1446C40.1995 49.3805 40.1193 49.6112 39.9657 49.7906L39.5344 50.2218C39.4468 50.3087 39.3429 50.3775 39.2287 50.4241C39.1145 50.4708 38.9922 50.4944 38.8688 50.4937ZM51.9751 50.4937C51.8517 50.4944 51.7294 50.4708 51.6151 50.4241C51.5009 50.3775 51.397 50.3087 51.3094 50.2218L50.8782 49.7906C50.7036 49.6149 50.6056 49.3773 50.6056 49.1296C50.6056 48.882 50.7036 48.6444 50.8782 48.4687C50.9653 48.3808 51.069 48.3111 51.1833 48.2635C51.2975 48.2159 51.42 48.1914 51.5438 48.1914C51.6676 48.1914 51.7901 48.2159 51.9043 48.2635C52.0186 48.3111 52.1223 48.3808 52.2094 48.4687L52.6407 48.9C52.8153 49.0756 52.9133 49.3132 52.9133 49.5609C52.9133 49.8086 52.8153 50.0462 52.6407 50.2218C52.5531 50.3087 52.4492 50.3775 52.335 50.4241C52.2207 50.4708 52.0984 50.4944 51.9751 50.4937ZM39.3001 37.8281C39.0528 37.8246 38.8169 37.7235 38.6438 37.5468L38.2032 37.1156C38.0279 36.939 37.9299 36.7001 37.9308 36.4513C37.9317 36.2025 38.0313 35.9643 38.2079 35.789C38.3844 35.6137 38.6233 35.5157 38.8721 35.5166C39.1209 35.5175 39.3591 35.6172 39.5344 35.7937L39.9657 36.2249C40.1403 36.4006 40.2383 36.6382 40.2383 36.8859C40.2383 37.1336 40.1403 37.3712 39.9657 37.5468C39.8789 37.6354 39.7753 37.7059 39.6611 37.7542C39.5468 37.8024 39.4241 37.8276 39.3001 37.8281ZM51.0563 43.95H45.4313C45.1827 43.95 44.9442 43.8512 44.7684 43.6754C44.5926 43.4996 44.4938 43.2611 44.4938 43.0125V38.2218C44.4938 37.9732 44.5926 37.7347 44.7684 37.5589C44.9442 37.3831 45.1827 37.2843 45.4313 37.2843C45.6799 37.2843 45.9184 37.3831 46.0942 37.5589C46.27 37.7347 46.3688 37.9732 46.3688 38.2218V42.075H51.0563C51.3049 42.075 51.5434 42.1737 51.7192 42.3495C51.895 42.5254 51.9938 42.7638 51.9938 43.0125C51.9938 43.2611 51.895 43.4996 51.7192 43.6754C51.5434 43.8512 51.3049 43.95 51.0563 43.95ZM10.8938 10.3125C10.6452 10.3125 10.4067 10.2137 10.2309 10.0379C10.0551 9.86205 9.9563 9.62359 9.9563 9.37495V4.2937C9.9563 4.04506 10.0551 3.8066 10.2309 3.63079C10.4067 3.45497 10.6452 3.3562 10.8938 3.3562C11.1424 3.3562 11.3809 3.45497 11.5567 3.63079C11.7325 3.8066 11.8313 4.04506 11.8313 4.2937V9.37495C11.8313 9.62359 11.7325 9.86205 11.5567 10.0379C11.3809 10.2137 11.1424 10.3125 10.8938 10.3125ZM19.6875 10.3125C19.4389 10.3125 19.2005 10.2137 19.0246 10.0379C18.8488 9.86205 18.75 9.62359 18.75 9.37495V4.2937C18.75 4.04506 18.8488 3.8066 19.0246 3.63079C19.2005 3.45497 19.4389 3.3562 19.6875 3.3562C19.9362 3.3562 20.1746 3.45497 20.3505 3.63079C20.5263 3.8066 20.625 4.04506 20.625 4.2937V9.37495C20.625 9.62359 20.5263 9.86205 20.3505 10.0379C20.1746 10.2137 19.9362 10.3125 19.6875 10.3125ZM28.4532 10.3125C28.2045 10.3125 27.9661 10.2137 27.7903 10.0379C27.6144 9.86205 27.5157 9.62359 27.5157 9.37495V4.2937C27.5157 4.04506 27.6144 3.8066 27.7903 3.63079C27.9661 3.45497 28.2045 3.3562 28.4532 3.3562C28.7018 3.3562 28.9403 3.45497 29.1161 3.63079C29.2919 3.8066 29.3907 4.04506 29.3907 4.2937V9.37495C29.3907 9.62359 29.2919 9.86205 29.1161 10.0379C28.9403 10.2137 28.7018 10.3125 28.4532 10.3125ZM37.2376 10.3125C36.9889 10.3125 36.7505 10.2137 36.5746 10.0379C36.3988 9.86205 36.3001 9.62359 36.3001 9.37495V4.2937C36.3001 4.04506 36.3988 3.8066 36.5746 3.63079C36.7505 3.45497 36.9889 3.3562 37.2376 3.3562C37.4862 3.3562 37.7246 3.45497 37.9005 3.63079C38.0763 3.8066 38.1751 4.04506 38.1751 4.2937V9.37495C38.1751 9.62359 38.0763 9.86205 37.9005 10.0379C37.7246 10.2137 37.4862 10.3125 37.2376 10.3125Z" fill="white"/>
</g>
</svg>
