<svg width="60" height="60" viewBox="0 0 60 60" fill="none" xmlns="http://www.w3.org/2000/svg">
<g id="Secure Server">
<path id="Vector" d="M6 22H9V24H6V40H26C26 47.7 32.3 54 40 54C47.7 54 54 47.7 54 40C54 39.7 54 39.3 53.9 39H54V24H51V22H54V6H6V22ZM40 52C33.4 52 28 46.6 28 40C28 33.4 33.4 28 40 28C46.6 28 52 33.4 52 40C52 46.6 46.6 52 40 52ZM52 26V32.8C49.6 28.7 45.1 26 40 26C34.9 26 30.4 28.7 28 32.8V28H26V36H26.6C26.4 36.6 26.3 37.3 26.2 38H8V26H9H40H51H52ZM49 24H11V22H49V24ZM8 8H52V20H51H9H8V8Z" fill="white"/>
<path id="Vector_2" d="M13 10H11V18H13V10Z" fill="white"/>
<path id="Vector_3" d="M18 10H16V18H18V10Z" fill="white"/>
<path id="Vector_4" d="M23 10H21V18H23V10Z" fill="white"/>
<path id="Vector_5" d="M28 10H26V18H28V10Z" fill="white"/>
<path id="Vector_6" d="M45 18C47.2 18 49 16.2 49 14C49 11.8 47.2 10 45 10C42.8 10 41 11.8 41 14C41 16.2 42.8 18 45 18ZM45 12C46.1 12 47 12.9 47 14C47 15.1 46.1 16 45 16C43.9 16 43 15.1 43 14C43 12.9 43.9 12 45 12Z" fill="white"/>
<path id="Vector_7" d="M13 28H11V36H13V28Z" fill="white"/>
<path id="Vector_8" d="M18 28H16V36H18V28Z" fill="white"/>
<path id="Vector_9" d="M23 28H21V36H23V28Z" fill="white"/>
<path id="Vector_10" d="M45 36C45 33.2 42.8 31 40 31C37.2 31 35 33.2 35 36V38H33V47H47V38H45V36ZM37 36C37 34.3 38.3 33 40 33C41.7 33 43 34.3 43 36V38H37V36ZM45 45H35V40H45V45Z" fill="white"/>
</g>
</svg>
