<svg width="40" height="40" viewBox="0 0 40 40" fill="none" xmlns="http://www.w3.org/2000/svg">
<g id="Shopping Website" clip-path="url(#clip0_688_9)">
<path id="Vector" d="M2.51619 3.44678C2.17057 3.44678 1.88807 3.1674 1.88807 2.82178C1.88807 2.47615 2.16432 2.19678 2.50932 2.19678H2.51619C2.86119 2.19678 3.14119 2.47615 3.14119 2.82178C3.14119 3.1674 2.86119 3.44678 2.51619 3.44678ZM4.39119 3.44678C4.04557 3.44678 3.76307 3.1674 3.76307 2.82178C3.76307 2.47615 4.03932 2.19678 4.38432 2.19678H4.39119C4.73619 2.19678 5.01619 2.47615 5.01619 2.82178C5.01619 3.1674 4.73619 3.44678 4.39119 3.44678ZM6.26619 3.44678C5.92057 3.44678 5.63807 3.1674 5.63807 2.82178C5.63807 2.47615 5.91432 2.19678 6.25932 2.19678H6.26619C6.61119 2.19678 6.89119 2.47615 6.89119 2.82178C6.89119 3.1674 6.61119 3.44678 6.26619 3.44678ZM39.3774 39.053H0.627441C0.281816 39.053 0.00244141 38.7737 0.00244141 38.428V4.07178C0.00244141 3.72615 0.281816 3.44678 0.627441 3.44678H39.3774C39.7231 3.44678 40.0024 3.72615 40.0024 4.07178V38.4287C40.0024 38.7737 39.7231 39.053 39.3774 39.053ZM1.25244 37.803H38.7524V4.69678H1.25244V37.803Z" fill="white"/>
<path id="Vector_2" d="M0.622559 3.44678C0.276934 3.44678 -0.00244141 3.1674 -0.00244141 2.82178C-0.00244141 1.78803 0.838809 0.946777 1.87256 0.946777C2.21818 0.946777 2.49756 1.22615 2.49756 1.57178C2.49756 1.9174 2.21818 2.19678 1.87256 2.19678C1.52756 2.19678 1.24756 2.47678 1.24756 2.82178C1.24756 3.16678 0.968184 3.44678 0.622559 3.44678Z" fill="white"/>
<path id="Vector_3" d="M0.622559 4.69678C0.276934 4.69678 -0.00244141 4.4174 -0.00244141 4.07178V2.82178C-0.00244141 2.47615 0.276934 2.19678 0.622559 2.19678C0.968184 2.19678 1.24756 2.47615 1.24756 2.82178V4.07178C1.24756 4.41678 0.968184 4.69678 0.622559 4.69678ZM39.3726 3.44678C39.0269 3.44678 38.7476 3.1674 38.7476 2.82178C38.7476 2.47678 38.4676 2.19678 38.1226 2.19678C37.7769 2.19678 37.4976 1.9174 37.4976 1.57178C37.4976 1.22615 37.7769 0.946777 38.1226 0.946777C39.1563 0.946777 39.9976 1.78803 39.9976 2.82178C39.9976 3.16678 39.7182 3.44678 39.3726 3.44678Z" fill="white"/>
<path id="Vector_4" d="M39.3726 4.69678C39.0269 4.69678 38.7476 4.4174 38.7476 4.07178V2.82178C38.7476 2.47615 39.0269 2.19678 39.3726 2.19678C39.7182 2.19678 39.9976 2.47615 39.9976 2.82178V4.07178C39.9976 4.41678 39.7182 4.69678 39.3726 4.69678ZM38.1226 2.19678H1.87256C1.52693 2.19678 1.24756 1.9174 1.24756 1.57178C1.24756 1.22615 1.52693 0.946777 1.87256 0.946777H38.1226C38.4682 0.946777 38.7476 1.22615 38.7476 1.57178C38.7476 1.9174 38.4682 2.19678 38.1226 2.19678ZM11.8851 34.6893H3.76318C3.41756 34.6893 3.13818 34.4099 3.13818 34.0643C3.13818 33.7187 3.41756 33.4393 3.76318 33.4393H11.8844C12.2301 33.4393 12.5094 33.7187 12.5094 34.0643C12.5094 34.4099 12.2301 34.6893 11.8851 34.6893ZM36.2588 34.6893H28.1376C27.7919 34.6893 27.5126 34.4099 27.5126 34.0643C27.5126 33.7187 27.7919 33.4393 28.1376 33.4393H36.2588C36.6044 33.4393 36.8838 33.7187 36.8838 34.0643C36.8838 34.4099 36.6038 34.6893 36.2588 34.6893ZM24.0638 34.6893H15.9426C15.5969 34.6893 15.3176 34.4099 15.3176 34.0643C15.3176 33.7187 15.5969 33.4393 15.9426 33.4393H24.0638C24.4094 33.4393 24.6888 33.7187 24.6888 34.0643C24.6888 34.4099 24.4094 34.6893 24.0638 34.6893Z" fill="white"/>
<g id="Group">
<path id="Vector_5" d="M22.2 36.5645H17.8057C17.46 36.5645 17.1807 36.2851 17.1807 35.9395C17.1807 35.5938 17.46 35.3145 17.8057 35.3145H22.2C22.5457 35.3145 22.825 35.5938 22.825 35.9395C22.825 36.2851 22.545 36.5645 22.2 36.5645Z" fill="white"/>
</g>
<g id="Group_2">
<path id="Vector_6" d="M34.3875 36.5645H30.0088C29.6632 36.5645 29.3838 36.2851 29.3838 35.9395C29.3838 35.5938 29.6632 35.3145 30.0088 35.3145H34.3875C34.7332 35.3145 35.0125 35.5938 35.0125 35.9395C35.0125 36.2851 34.7325 36.5645 34.3875 36.5645Z" fill="white"/>
</g>
<g id="Group_3">
<path id="Vector_7" d="M10.0126 36.5645H5.63818C5.29256 36.5645 5.01318 36.2851 5.01318 35.9395C5.01318 35.5938 5.29256 35.3145 5.63818 35.3145H10.0119C10.3576 35.3145 10.6369 35.5938 10.6369 35.9395C10.6369 36.2851 10.3576 36.5645 10.0126 36.5645Z" fill="white"/>
</g>
<g id="Group_4">
<path id="Vector_8" d="M36.8875 25.9342H3.13745C2.79183 25.9342 2.51245 25.6548 2.51245 25.3092V6.58105C2.51245 6.23543 2.79183 5.95605 3.13745 5.95605H36.8875C37.2331 5.95605 37.5125 6.23543 37.5125 6.58105V25.3092C37.5125 25.6548 37.2325 25.9342 36.8875 25.9342ZM3.76245 24.6842H36.2625V7.20605H3.76245V24.6842Z" fill="white"/>
</g>
<g id="Group_5">
<path id="Vector_9" d="M33.7551 14.7013H22.5076C22.1619 14.7013 21.8826 14.4219 21.8826 14.0763C21.8826 13.7307 22.1619 13.4513 22.5076 13.4513H33.7551C34.1007 13.4513 34.3801 13.7307 34.3801 14.0763C34.3801 14.4219 34.1007 14.7013 33.7551 14.7013ZM33.7551 12.8257H22.5076C22.1619 12.8257 21.8826 12.5463 21.8826 12.2007C21.8826 11.8551 22.1619 11.5757 22.5076 11.5757H33.7551C34.1007 11.5757 34.3801 11.8551 34.3801 12.2007C34.3801 12.5463 34.1007 12.8257 33.7551 12.8257ZM33.7551 16.5813H22.5076C22.1619 16.5813 21.8826 16.3019 21.8826 15.9563C21.8826 15.6107 22.1619 15.3313 22.5076 15.3313H33.7551C34.1007 15.3313 34.3801 15.6107 34.3801 15.9563C34.3801 16.3019 34.1007 16.5813 33.7551 16.5813ZM27.5051 18.4613H22.5076C22.1619 18.4613 21.8826 18.1819 21.8826 17.8363C21.8826 17.4907 22.1619 17.2113 22.5076 17.2113H27.5051C27.8507 17.2113 28.1301 17.4907 28.1301 17.8363C28.1301 18.1819 27.8507 18.4613 27.5051 18.4613ZM25.0026 21.5813H22.5088C22.1632 21.5813 21.8838 21.3019 21.8838 20.9563C21.8838 20.6107 22.1632 20.3313 22.5088 20.3313H25.0026C25.3482 20.3313 25.6276 20.6107 25.6276 20.9563C25.6276 21.3019 25.3482 21.5813 25.0026 21.5813ZM27.4988 20.9563H26.8713C26.5257 20.9563 26.2463 20.6769 26.2463 20.3313C26.2463 19.9857 26.5257 19.7063 26.8713 19.7063H27.4988C27.8444 19.7063 28.1238 19.9857 28.1238 20.3313C28.1238 20.6769 27.8444 20.9563 27.4988 20.9563Z" fill="white"/>
<path id="Vector_10" d="M27.4994 22.2061C27.2707 22.2061 27.05 22.0799 26.94 21.8611L26.3125 20.6111C26.1575 20.303 26.2819 19.9274 26.5907 19.7724C26.8988 19.618 27.2744 19.7424 27.4294 20.0505L28.0569 21.3005C28.2119 21.6086 28.0875 21.9842 27.7788 22.1392C27.6894 22.1849 27.5932 22.2061 27.4994 22.2061Z" fill="white"/>
<path id="Vector_11" d="M27.4988 22.2065H26.8738C26.5282 22.2065 26.2488 21.9272 26.2488 21.5815C26.2488 21.2359 26.5282 20.9565 26.8738 20.9565H27.4988C27.8444 20.9565 28.1238 21.2359 28.1238 21.5815C28.1238 21.9272 27.8444 22.2065 27.4988 22.2065Z" fill="white"/>
</g>
<g id="Group_6">
<path id="Vector_12" d="M7.82446 32.1904C6.61821 32.1904 5.63696 31.2092 5.63696 30.0029C5.63696 28.7967 6.61821 27.8154 7.82446 27.8154C9.03071 27.8154 10.012 28.7967 10.012 30.0029C10.012 31.2092 9.03009 32.1904 7.82446 32.1904ZM7.82446 29.0654C7.30759 29.0654 6.88696 29.4861 6.88696 30.0029C6.88696 30.5198 7.30759 30.9404 7.82446 30.9404C8.34134 30.9404 8.76196 30.5198 8.76196 30.0029C8.76196 29.4861 8.34134 29.0654 7.82446 29.0654Z" fill="white"/>
</g>
<g id="Group_7">
<path id="Vector_13" d="M20.0125 32.1904C18.8062 32.1904 17.825 31.2092 17.825 30.0029C17.825 28.7967 18.8062 27.8154 20.0125 27.8154C21.2187 27.8154 22.2 28.7967 22.2 30.0029C22.2 31.2092 21.2181 32.1904 20.0125 32.1904ZM20.0125 29.0654C19.4956 29.0654 19.075 29.4861 19.075 30.0029C19.075 30.5198 19.4956 30.9404 20.0125 30.9404C20.5293 30.9404 20.95 30.5198 20.95 30.0029C20.95 29.4861 20.5293 29.0654 20.0125 29.0654Z" fill="white"/>
</g>
<g id="Group_8">
<path id="Vector_14" d="M32.2007 32.1904C30.9944 32.1904 30.0132 31.2092 30.0132 30.0029C30.0132 28.7967 30.9944 27.8154 32.2007 27.8154C33.4069 27.8154 34.3882 28.7967 34.3882 30.0029C34.3882 31.2092 33.4063 32.1904 32.2007 32.1904ZM32.2007 29.0654C31.6838 29.0654 31.2632 29.4861 31.2632 30.0029C31.2632 30.5198 31.6838 30.9404 32.2007 30.9404C32.7176 30.9404 33.1382 30.5198 33.1382 30.0029C33.1382 29.4861 32.7176 29.0654 32.2007 29.0654Z" fill="white"/>
</g>
<g id="Group_9">
<path id="Vector_15" d="M16.8712 21.5775H8.12061C7.08686 21.5775 6.24561 20.7362 6.24561 19.7025V14.0737C6.24561 13.04 7.08686 12.1987 8.12061 12.1987H16.8712C17.905 12.1987 18.7462 13.04 18.7462 14.0737V19.7025C18.7462 20.7369 17.905 21.5775 16.8712 21.5775ZM8.12061 13.4494C7.77561 13.4494 7.49561 13.7294 7.49561 14.0744V19.7031C7.49561 20.0481 7.77561 20.3281 8.12061 20.3281H16.8712C17.2162 20.3281 17.4962 20.0481 17.4962 19.7031V14.0744C17.4962 13.7294 17.2162 13.4494 16.8712 13.4494H8.12061Z" fill="white"/>
<path id="Vector_16" d="M13.1162 15.9489H11.8756C11.53 15.9489 11.2506 15.6696 11.2506 15.3239C11.2506 14.9783 11.53 14.6989 11.8756 14.6989H13.1162C13.4619 14.6989 13.7412 14.9783 13.7412 15.3239C13.7412 15.6696 13.4619 15.9489 13.1162 15.9489ZM14.9956 12.8252C14.65 12.8252 14.3706 12.5458 14.3706 12.2002C14.3706 11.1664 13.5294 10.3252 12.4956 10.3252C11.4619 10.3252 10.6206 11.1664 10.6206 12.2002C10.6206 12.5458 10.3412 12.8252 9.99561 12.8252C9.64998 12.8252 9.37061 12.5458 9.37061 12.2002C9.37061 10.4771 10.7725 9.0752 12.4956 9.0752C14.2187 9.0752 15.6206 10.4771 15.6206 12.2002C15.6206 12.5452 15.3412 12.8252 14.9956 12.8252Z" fill="white"/>
<path id="Vector_17" d="M9.99561 14.7002C9.64998 14.7002 9.37061 14.4208 9.37061 14.0752V12.2002C9.37061 11.8546 9.64998 11.5752 9.99561 11.5752C10.3412 11.5752 10.6206 11.8546 10.6206 12.2002V14.0752C10.6206 14.4202 10.3412 14.7002 9.99561 14.7002ZM14.9956 14.7002C14.65 14.7002 14.3706 14.4208 14.3706 14.0752V12.2002C14.3706 11.8546 14.65 11.5752 14.9956 11.5752C15.3412 11.5752 15.6206 11.8546 15.6206 12.2002V14.0752C15.6206 14.4202 15.3412 14.7002 14.9956 14.7002Z" fill="white"/>
</g>
</g>
<defs>
<clipPath id="clip0_688_9">
<rect width="40" height="40" fill="white"/>
</clipPath>
</defs>
</svg>
