<svg width="60" height="60" viewBox="0 0 60 60" fill="none" xmlns="http://www.w3.org/2000/svg">
<g id="Website">
<g id="Layer 7">
<path id="Vector" d="M5.62494 5.32505H6.52494V6.22505C6.52494 6.47369 6.62372 6.71215 6.79953 6.88796C6.97535 7.06378 7.2138 7.16255 7.46244 7.16255C7.71108 7.16255 7.94954 7.06378 8.12536 6.88796C8.30117 6.71215 8.39994 6.47369 8.39994 6.22505V5.32505H9.37494C9.62358 5.32505 9.86204 5.22628 10.0379 5.05046C10.2137 4.87465 10.3124 4.63619 10.3124 4.38755C10.3124 4.13891 10.2137 3.90045 10.0379 3.72464C9.86204 3.54882 9.62358 3.45005 9.37494 3.45005H8.47494V2.55005C8.47494 2.30141 8.37617 2.06295 8.20036 1.88714C8.02454 1.71132 7.78608 1.61255 7.53744 1.61255C7.2888 1.61255 7.05035 1.71132 6.87453 1.88714C6.69872 2.06295 6.59994 2.30141 6.59994 2.55005V3.45005H5.62494C5.3763 3.45005 5.13785 3.54882 4.96203 3.72464C4.78622 3.90045 4.68744 4.13891 4.68744 4.38755C4.68744 4.63619 4.78622 4.87465 4.96203 5.05046C5.13785 5.22628 5.3763 5.32505 5.62494 5.32505ZM53.7749 54.675H52.8749V53.775C52.8749 53.5264 52.7762 53.2879 52.6004 53.1121C52.4245 52.9363 52.1861 52.8375 51.9374 52.8375C51.6888 52.8375 51.4503 52.9363 51.2745 53.1121C51.0987 53.2879 50.9999 53.5264 50.9999 53.775V54.675H50.0999C49.8513 54.675 49.6128 54.7738 49.437 54.9496C49.2612 55.1255 49.1624 55.3639 49.1624 55.6125C49.1624 55.8612 49.2612 56.0996 49.437 56.2755C49.6128 56.4513 49.8513 56.55 50.0999 56.55H50.9999V57.45C50.9999 57.6987 51.0987 57.9371 51.2745 58.113C51.4503 58.2888 51.6888 58.3875 51.9374 58.3875C52.1861 58.3875 52.4245 58.2888 52.6004 58.113C52.7762 57.9371 52.8749 57.6987 52.8749 57.45V56.55H53.7749C54.0236 56.55 54.262 56.4513 54.4379 56.2755C54.6137 56.0996 54.7124 55.8612 54.7124 55.6125C54.7124 55.3639 54.6137 55.1255 54.4379 54.9496C54.262 54.7738 54.0236 54.675 53.7749 54.675ZM55.1999 43.8375H54.8624C55.5109 43.014 55.8671 41.9982 55.8749 40.95V13.9125C55.8749 12.6495 55.3732 11.4381 54.48 10.545C53.5869 9.65181 52.3755 9.15005 51.1124 9.15005H8.90619C7.6431 9.15005 6.43174 9.65181 5.5386 10.545C4.64546 11.4381 4.14369 12.6495 4.14369 13.9125V40.9313C4.15157 41.9795 4.50776 42.9953 5.15619 43.8188H4.79994C3.9119 43.8837 3.08131 44.2823 2.47507 44.9344C1.86883 45.5866 1.53186 46.444 1.53186 47.3344C1.53186 48.2248 1.86883 49.0823 2.47507 49.7344C3.08131 50.3866 3.9119 50.7852 4.79994 50.85H55.1999C56.088 50.7852 56.9186 50.3866 57.5248 49.7344C58.1311 49.0823 58.468 48.2248 58.468 47.3344C58.468 46.444 58.1311 45.5866 57.5248 44.9344C56.9186 44.2823 56.088 43.8837 55.1999 43.8188V43.8375ZM6.01869 40.9313V13.9125C6.01869 13.1467 6.32291 12.4123 6.86442 11.8708C7.40593 11.3293 8.14038 11.025 8.90619 11.025H51.0937C51.8595 11.025 52.594 11.3293 53.1355 11.8708C53.677 12.4123 53.9812 13.1467 53.9812 13.9125V40.9313C53.9812 41.6971 53.677 42.4316 53.1355 42.9731C52.594 43.5146 51.8595 43.8188 51.0937 43.8188H8.90619C8.14038 43.8188 7.40593 43.5146 6.86442 42.9731C6.32291 42.4316 6.01869 41.6971 6.01869 40.9313ZM55.1999 48.975H4.79994C4.58408 48.9702 4.37133 48.9226 4.17402 48.8349C3.97671 48.7472 3.79877 48.6212 3.65052 48.4643C3.50227 48.3073 3.38665 48.1224 3.31038 47.9205C3.23411 47.7185 3.19869 47.5033 3.20619 47.2875C3.21106 46.8664 3.38054 46.4638 3.67838 46.166C3.97621 45.8681 4.37877 45.6987 4.79994 45.6938H55.1999C55.4158 45.6986 55.6286 45.7463 55.8259 45.834C56.0232 45.9216 56.2011 46.0476 56.3494 46.2046C56.4976 46.3616 56.6132 46.5464 56.6895 46.7484C56.7658 46.9504 56.8012 47.1655 56.7937 47.3813C56.7937 47.8057 56.6264 48.2131 56.3281 48.5149C56.0297 48.8168 55.6243 48.9889 55.1999 48.9938V48.975Z" fill="white"/>
<path id="Vector_2" d="M30 18.75C28.1458 18.75 26.3332 19.2998 24.7915 20.33C23.2498 21.3601 22.0482 22.8243 21.3386 24.5373C20.6291 26.2504 20.4434 28.1354 20.8051 29.954C21.1669 31.7725 22.0598 33.443 23.3709 34.7541C24.682 36.0652 26.3525 36.9581 28.171 37.3199C29.9896 37.6816 31.8746 37.4959 33.5877 36.7864C35.3007 36.0768 36.7649 34.8752 37.795 33.3335C38.8252 31.7918 39.375 29.9792 39.375 28.125C39.375 25.6386 38.3873 23.254 36.6291 21.4959C34.871 19.7377 32.4864 18.75 30 18.75ZM37.3125 27.0938H35.2313C35.1622 25.2455 34.7088 23.432 33.9 21.7687C34.8389 22.3581 35.6332 23.1511 36.2239 24.0891C36.8146 25.0272 37.1867 26.0861 37.3125 27.1875V27.0938ZM29.0625 20.9812V27.1875H26.625C26.5924 26.0562 26.7918 24.9302 27.2111 23.8789C27.6303 22.8277 28.2604 21.8734 29.0625 21.075V20.9812ZM29.0625 28.9688V35.0812C28.2604 34.2828 27.6303 33.3286 27.2111 32.2773C26.7918 31.226 26.5924 30.1 26.625 28.9688H29.0625ZM30.9375 35.0812V29.0625H33.375C33.4076 30.1938 33.2082 31.3198 32.7889 32.3711C32.3697 33.4223 31.7396 34.3766 30.9375 35.175V35.0812ZM30.9375 27.0938V21.075C31.7396 21.8734 32.3697 22.8277 32.7889 23.8789C33.2082 24.9302 33.4076 26.0562 33.375 27.1875L30.9375 27.0938ZM26.0813 21.7687C25.2724 23.432 24.819 25.2455 24.75 27.0938H22.6875C22.8376 26.0271 23.2191 25.0062 23.8054 24.1025C24.3916 23.1988 25.1684 22.4343 26.0813 21.8625V21.7687ZM22.6875 29.0625H24.7688C24.8378 30.9107 25.2912 32.7242 26.1 34.3875C25.1725 33.8079 24.3852 33.0295 23.7951 32.1087C23.2049 31.1878 22.8267 30.1474 22.6875 29.0625ZM33.9375 34.3875C34.7463 32.7242 35.1997 30.9107 35.2688 29.0625H37.3125C37.1755 30.1457 36.8001 31.1851 36.2132 32.1059C35.6264 33.0266 34.8428 33.8059 33.9188 34.3875H33.9375Z" fill="white"/>
</g>
</g>
</svg>
