<svg width="60" height="60" viewBox="0 0 60 60" fill="none" xmlns="http://www.w3.org/2000/svg">
<g id="Support">
<path id="Vector" d="M49.8342 28.4057C49.2658 28.4057 48.7208 28.18 48.3189 27.7781C47.9171 27.3762 47.6913 26.8312 47.6913 26.2629V20.2114C47.6913 11.64 39.7713 4.78287 30.0342 4.78287C20.297 4.78287 12.377 11.7257 12.377 20.2114V26.2629C12.377 26.8312 12.1513 27.3762 11.7494 27.7781C11.3475 28.18 10.8025 28.4057 10.2342 28.4057C9.66584 28.4057 9.1208 28.18 8.71894 27.7781C8.31707 27.3762 8.09131 26.8312 8.09131 26.2629V20.2114C8.09131 9.30859 17.9485 0.428589 30.0342 0.428589C42.1199 0.428589 51.977 9.30859 51.977 20.2114V26.2629C51.9793 26.5449 51.9254 26.8246 51.8186 27.0856C51.7117 27.3466 51.5539 27.5838 51.3545 27.7832C51.155 27.9826 50.9179 28.1404 50.6569 28.2473C50.3959 28.3542 50.1162 28.408 49.8342 28.4057Z" fill="white"/>
<path id="Vector_2" d="M44.0399 48.5657C43.4716 48.5657 42.9265 48.34 42.5247 47.9381C42.1228 47.5362 41.8971 46.9912 41.8971 46.4229V26.0743C41.9149 25.5179 42.1485 24.9903 42.5484 24.6032C42.9484 24.216 43.4833 23.9997 44.0399 24C51.4285 24 57.4456 29.5371 57.4456 36.3257C57.4456 43.1143 51.4285 48.5657 44.0399 48.5657ZM46.1828 28.44V44.0571C48.0589 43.7465 49.7723 42.8035 51.0383 41.3846C52.3044 39.9657 53.047 38.1564 53.1428 36.2571C53.0508 34.3549 52.3099 32.5416 51.0435 31.1192C49.7771 29.6968 48.0616 28.7513 46.1828 28.44ZM15.9599 48.5657C8.57134 48.5657 2.5542 43.0457 2.5542 36.2571C2.5542 29.4686 8.57134 24 15.9599 24C16.5282 24 17.0733 24.2258 17.4751 24.6276C17.877 25.0295 18.1028 25.5745 18.1028 26.1429V46.4229C18.1028 46.9912 17.877 47.5362 17.4751 47.9381C17.0733 48.34 16.5282 48.5657 15.9599 48.5657ZM13.8171 28.44C11.9382 28.7513 10.2227 29.6968 8.9563 31.1192C7.68989 32.5416 6.94901 34.3549 6.85706 36.2571C6.95281 38.1564 7.69541 39.9657 8.96149 41.3846C10.2276 42.8035 11.941 43.7465 13.8171 44.0571V28.44Z" fill="white"/>
<path id="Vector_3" d="M43.3372 55.5428H36.24C35.6717 55.5428 35.1267 55.317 34.7248 54.9152C34.3229 54.5133 34.0972 53.9683 34.0972 53.4C34.0972 52.8316 34.3229 52.2866 34.7248 51.8847C35.1267 51.4829 35.6717 51.2571 36.24 51.2571H43.3372C44.4465 51.2571 45.5105 50.8164 46.2949 50.032C47.0793 49.2475 47.52 48.1836 47.52 47.0742V46.1314C47.52 45.5631 47.7458 45.018 48.1477 44.6162C48.5495 44.2143 49.0946 43.9885 49.6629 43.9885C50.2312 43.9885 50.7763 44.2143 51.1781 44.6162C51.58 45.018 51.8057 45.5631 51.8057 46.1314V47.0742C51.8057 49.3202 50.9135 51.4743 49.3254 53.0624C47.7372 54.6506 45.5832 55.5428 43.3372 55.5428Z" fill="white"/>
<path id="Vector_4" d="M32.5715 59.5714H28.3372C26.7823 59.5714 25.2911 58.9537 24.1916 57.8542C23.0921 56.7547 22.4744 55.2634 22.4744 53.7085V53.4685C22.4789 51.9166 23.0986 50.4297 24.1976 49.3339C25.2966 48.2381 26.7853 47.6228 28.3372 47.6228H32.5715C34.1219 47.6228 35.6088 48.2387 36.7051 49.335C37.8013 50.4313 38.4172 51.9181 38.4172 53.4685V53.7085C38.4172 55.2605 37.8019 56.7491 36.7061 57.8481C35.6103 58.9471 34.1235 59.5668 32.5715 59.5714ZM28.3715 51.9085C27.9562 51.9085 27.5576 52.0723 27.2623 52.3644C26.967 52.6564 26.7989 53.0532 26.7944 53.4685V53.7085C26.7944 54.1268 26.9605 54.528 27.2563 54.8237C27.5521 55.1195 27.9532 55.2857 28.3715 55.2857H32.5715C32.9868 55.2811 33.3836 55.113 33.6757 54.8177C33.9677 54.5224 34.1315 54.1238 34.1315 53.7085V53.4685C34.1315 53.0548 33.9672 52.658 33.6746 52.3654C33.382 52.0729 32.9852 51.9085 32.5715 51.9085H28.3715Z" fill="white"/>
</g>
</svg>
