<svg width="60" height="60" viewBox="0 0 60 60" fill="none" xmlns="http://www.w3.org/2000/svg">
<g id="Website" clip-path="url(#clip0_660_81)">
<path id="Vector" d="M58.75 50H57.5V18.75C57.5 17.7554 57.1049 16.8016 56.4016 16.0983C55.6984 15.3951 54.7446 15 53.75 15H50V3.75C50 2.75544 49.6049 1.80161 48.9016 1.09835C48.1984 0.395088 47.2446 0 46.25 0L13.75 0C12.7554 0 11.8016 0.395088 11.0983 1.09835C10.3951 1.80161 10 2.75544 10 3.75V15H6.25C5.25544 15 4.30161 15.3951 3.59835 16.0983C2.89509 16.8016 2.5 17.7554 2.5 18.75V50H1.25C0.918479 50 0.600537 50.1317 0.366117 50.3661C0.131696 50.6005 0 50.9185 0 51.25L0 53.75C0 54.5708 0.161661 55.3835 0.475753 56.1418C0.789845 56.9001 1.25022 57.5891 1.83058 58.1694C2.41095 58.7498 3.09994 59.2102 3.85823 59.5242C4.61651 59.8383 5.42924 60 6.25 60H53.75C54.5708 60 55.3835 59.8383 56.1418 59.5242C56.9001 59.2102 57.5891 58.7498 58.1694 58.1694C58.7498 57.5891 59.2102 56.9001 59.5242 56.1418C59.8383 55.3835 60 54.5708 60 53.75V51.25C60 50.9185 59.8683 50.6005 59.6339 50.3661C59.3995 50.1317 59.0815 50 58.75 50ZM12.5 10H47.5V38.75C47.5 39.0815 47.3683 39.3995 47.1339 39.6339C46.8995 39.8683 46.5815 40 46.25 40H13.75C13.4185 40 13.1005 39.8683 12.8661 39.6339C12.6317 39.3995 12.5 39.0815 12.5 38.75V10ZM12.5 3.75C12.5 3.41848 12.6317 3.10054 12.8661 2.86612C13.1005 2.6317 13.4185 2.5 13.75 2.5H46.25C46.5815 2.5 46.8995 2.6317 47.1339 2.86612C47.3683 3.10054 47.5 3.41848 47.5 3.75V7.5H12.5V3.75ZM5 18.75C5 18.4185 5.1317 18.1005 5.36612 17.8661C5.60054 17.6317 5.91848 17.5 6.25 17.5H10V38.75C10 39.7446 10.3951 40.6984 11.0983 41.4016C11.8016 42.1049 12.7554 42.5 13.75 42.5H46.25C47.2446 42.5 48.1984 42.1049 48.9016 41.4016C49.6049 40.6984 50 39.7446 50 38.75V17.5H53.75C54.0815 17.5 54.3995 17.6317 54.6339 17.8661C54.8683 18.1005 55 18.4185 55 18.75V50C35 50 35.625 49.7125 35.1375 50.6875L34.225 52.5H25.775C24.7625 50.4875 24.675 50 23.75 50H5V18.75ZM57.5 53.75C57.5 54.7446 57.1049 55.6984 56.4016 56.4016C55.6984 57.1049 54.7446 57.5 53.75 57.5H6.25C5.25544 57.5 4.30161 57.1049 3.59835 56.4016C2.89509 55.6984 2.5 54.7446 2.5 53.75V52.5H22.975C23.9875 54.5125 24.075 55 25 55C35.775 55 35.65 55.25 36.1125 54.3125L37.025 52.5H57.5V53.75Z" fill="white"/>
<path id="Vector_2" d="M16.25 3.75C15.9185 3.75 15.6005 3.8817 15.3661 4.11612C15.1317 4.35054 15 4.66848 15 5C15 5.33152 15.1317 5.64946 15.3661 5.88388C15.6005 6.1183 15.9185 6.25 16.25 6.25C16.5815 6.25 16.8995 6.1183 17.1339 5.88388C17.3683 5.64946 17.5 5.33152 17.5 5C17.5 4.66848 17.3683 4.35054 17.1339 4.11612C16.8995 3.8817 16.5815 3.75 16.25 3.75ZM21.25 3.75C20.9185 3.75 20.6005 3.8817 20.3661 4.11612C20.1317 4.35054 20 4.66848 20 5C20 5.33152 20.1317 5.64946 20.3661 5.88388C20.6005 6.1183 20.9185 6.25 21.25 6.25C21.5815 6.25 21.8995 6.1183 22.1339 5.88388C22.3683 5.64946 22.5 5.33152 22.5 5C22.5 4.66848 22.3683 4.35054 22.1339 4.11612C21.8995 3.8817 21.5815 3.75 21.25 3.75ZM26.25 3.75C25.9185 3.75 25.6005 3.8817 25.3661 4.11612C25.1317 4.35054 25 4.66848 25 5C25 5.33152 25.1317 5.64946 25.3661 5.88388C25.6005 6.1183 25.9185 6.25 26.25 6.25C26.5815 6.25 26.8995 6.1183 27.1339 5.88388C27.3683 5.64946 27.5 5.33152 27.5 5C27.5 4.66848 27.3683 4.35054 27.1339 4.11612C26.8995 3.8817 26.5815 3.75 26.25 3.75ZM30 37.5C32.4723 37.5 34.889 36.7669 36.9446 35.3934C39.0002 34.0199 40.6024 32.0676 41.5485 29.7835C42.4946 27.4995 42.7421 24.9861 42.2598 22.5614C41.7775 20.1366 40.587 17.9093 38.8388 16.1612C37.0907 14.413 34.8634 13.2225 32.4386 12.7402C30.0139 12.2579 27.5005 12.5054 25.2165 13.4515C22.9324 14.3976 20.9801 15.9998 19.6066 18.0554C18.2331 20.111 17.5 22.5277 17.5 25C17.5 28.3152 18.817 31.4946 21.1612 33.8388C23.5054 36.183 26.6848 37.5 30 37.5ZM20.0875 26.25H25.0875C25.2036 29.2231 26.0631 32.1198 27.5875 34.675C25.6348 34.1884 23.8743 33.124 22.5363 31.6209C21.1982 30.1178 20.3447 28.2459 20.0875 26.25ZM30 16.1C31.5276 18.3684 32.3932 21.0173 32.5 23.75H27.5C27.6068 21.0173 28.4724 18.3684 30 16.1ZM32.5 26.25C32.3932 28.9827 31.5276 31.6316 30 33.9C28.4724 31.6316 27.6068 28.9827 27.5 26.25H32.5ZM32.5 34.675C34.0244 32.1198 34.8839 29.2231 35 26.25H40C39.7428 28.2459 38.8893 30.1178 37.5512 31.6209C36.2132 33.124 34.4527 34.1884 32.5 34.675ZM39.9125 23.75H35C34.8839 20.7769 34.0244 17.8802 32.5 15.325C34.4365 15.8268 36.178 16.8979 37.4994 18.3998C38.8208 19.9017 39.6614 21.7654 39.9125 23.75ZM27.5 15.325C25.9756 17.8802 25.1161 20.7769 25 23.75H20C20.2572 21.7541 21.1107 19.8822 22.4488 18.3791C23.7868 16.876 25.5473 15.8116 27.5 15.325Z" fill="white"/>
</g>
<defs>
<clipPath id="clip0_660_81">
<rect width="60" height="60" fill="white"/>
</clipPath>
</defs>
</svg>
