<svg width="30" height="30" viewBox="0 0 30 30" fill="none" xmlns="http://www.w3.org/2000/svg">
<g id="Email">
<path id="Vector" d="M3.92589 8.71289C4.57042 9.05273 13.5235 13.9336 13.8575 14.1094C14.1915 14.2852 14.5314 14.3672 15.0587 14.3672C15.586 14.3672 15.9259 14.2852 16.2599 14.1094C16.5939 13.9336 25.547 9.05273 26.1915 8.71289C26.4318 8.58984 26.8361 8.36719 26.9239 8.11523C27.0763 7.66992 26.9122 7.5 26.2618 7.5H3.85558C3.20519 7.5 3.04113 7.67578 3.19347 8.11523C3.28136 8.37305 3.68566 8.58984 3.92589 8.71289Z" fill="#3F3E3E"/>
<path id="Vector_2" d="M26.7012 8.97663C26.2207 9.22272 21.9082 12.293 19.0547 14.1387L23.8711 19.5587C23.9883 19.6758 24.041 19.8165 23.9766 19.8868C23.9062 19.9512 23.7539 19.9161 23.6309 19.8048L17.8535 14.9298C16.9805 15.4923 16.3652 15.879 16.2598 15.9376C15.8086 16.1661 15.4922 16.1954 15.0586 16.1954C14.625 16.1954 14.3086 16.1661 13.8574 15.9376C13.7461 15.879 13.1367 15.4923 12.2637 14.9298L6.48633 19.8048C6.36914 19.9219 6.21094 19.9571 6.14063 19.8868C6.07031 19.8223 6.12305 19.6758 6.24023 19.5587L11.0508 14.1387C8.19727 12.293 3.83789 9.22272 3.35742 8.97663C2.8418 8.71295 2.8125 9.0235 2.8125 9.26374V21.2755C2.8125 21.8204 3.61523 22.5001 4.18945 22.5001H25.9277C26.502 22.5001 27.1875 21.8145 27.1875 21.2755V9.26374C27.1875 9.01764 27.2227 8.71295 26.7012 8.97663Z" fill="#3F3E3E"/>
</g>
</svg>
